{"glyphs":{"0":{"ha":608,"x_min":0,"x_max":521,"o":"m 347 174 l 260 174 l 174 174 l 87 174 l 87 260 l 0 260 l 0 347 l 0 434 l 0 521 l 0 608 l 87 608 l 87 694 l 174 694 l 260 694 l 347 694 l 434 694 l 434 608 l 521 608 l 521 521 l 521 434 l 521 347 l 521 260 l 434 260 l 434 174 l 347 174 m 260 260 l 347 260 l 347 347 l 347 434 l 347 521 l 347 608 l 260 608 l 174 608 l 174 521 l 174 434 l 174 347 l 174 260 l 260 260 z "},"1":{"ha":434,"x_min":0,"x_max":347,"o":"m 260 174 l 174 174 l 87 174 l 0 174 l 0 260 l 87 260 l 87 347 l 87 434 l 87 521 l 0 521 l 0 608 l 87 608 l 87 694 l 174 694 l 260 694 l 260 608 l 260 521 l 260 434 l 260 347 l 260 260 l 347 260 l 347 174 l 260 174 z "},"2":{"ha":608,"x_min":0,"x_max":521,"o":"m 434 260 l 521 260 l 521 174 l 434 174 l 347 174 l 260 174 l 174 174 l 87 174 l 0 174 l 0 260 l 0 347 l 87 347 l 87 434 l 174 434 l 260 434 l 347 434 l 347 521 l 347 608 l 260 608 l 174 608 l 174 521 l 87 521 l 0 521 l 0 608 l 87 608 l 87 694 l 174 694 l 260 694 l 347 694 l 434 694 l 434 608 l 521 608 l 521 521 l 521 434 l 434 434 l 434 347 l 347 347 l 260 347 l 174 347 l 174 260 l 260 260 l 347 260 l 434 260 z "},"3":{"ha":608,"x_min":0,"x_max":521,"o":"m 347 174 l 260 174 l 174 174 l 87 174 l 87 260 l 0 260 l 0 347 l 87 347 l 174 347 l 174 260 l 260 260 l 347 260 l 347 347 l 347 434 l 260 434 l 260 521 l 347 521 l 347 608 l 260 608 l 174 608 l 174 521 l 87 521 l 0 521 l 0 608 l 87 608 l 87 694 l 174 694 l 260 694 l 347 694 l 434 694 l 434 608 l 521 608 l 521 521 l 434 521 l 434 434 l 521 434 l 521 347 l 521 260 l 434 260 l 434 174 l 347 174 z "},"4":{"ha":608,"x_min":0,"x_max":521,"o":"m 347 174 l 260 174 l 260 260 l 174 260 l 87 260 l 0 260 l 0 347 l 0 434 l 87 434 l 87 521 l 174 521 l 174 608 l 260 608 l 260 694 l 347 694 l 434 694 l 434 608 l 434 521 l 434 434 l 434 347 l 521 347 l 521 260 l 434 260 l 434 174 l 347 174 m 260 347 l 260 434 l 174 434 l 174 347 l 260 347 z "},"5":{"ha":608,"x_min":0,"x_max":521,"o":"m 347 174 l 260 174 l 174 174 l 87 174 l 87 260 l 0 260 l 0 347 l 87 347 l 174 347 l 174 260 l 260 260 l 347 260 l 347 347 l 347 434 l 260 434 l 174 434 l 87 434 l 0 434 l 0 521 l 0 608 l 0 694 l 87 694 l 174 694 l 260 694 l 347 694 l 434 694 l 521 694 l 521 608 l 434 608 l 347 608 l 260 608 l 174 608 l 174 521 l 260 521 l 347 521 l 434 521 l 434 434 l 521 434 l 521 347 l 521 260 l 434 260 l 434 174 l 347 174 z "},"6":{"ha":608,"x_min":0,"x_max":521,"o":"m 347 174 l 260 174 l 174 174 l 87 174 l 87 260 l 0 260 l 0 347 l 0 434 l 0 521 l 0 608 l 87 608 l 87 694 l 174 694 l 260 694 l 347 694 l 434 694 l 434 608 l 347 608 l 260 608 l 174 608 l 174 521 l 260 521 l 347 521 l 434 521 l 434 434 l 521 434 l 521 347 l 521 260 l 434 260 l 434 174 l 347 174 m 260 260 l 347 260 l 347 347 l 347 434 l 260 434 l 174 434 l 174 347 l 174 260 l 260 260 z "},"7":{"ha":608,"x_min":0,"x_max":521,"o":"m 260 174 l 174 174 l 174 260 l 174 347 l 174 434 l 260 434 l 260 521 l 347 521 l 347 608 l 260 608 l 174 608 l 87 608 l 0 608 l 0 694 l 87 694 l 174 694 l 260 694 l 347 694 l 434 694 l 521 694 l 521 608 l 521 521 l 434 521 l 434 434 l 347 434 l 347 347 l 347 260 l 347 174 l 260 174 z "},"8":{"ha":608,"x_min":0,"x_max":521,"o":"m 347 174 l 260 174 l 174 174 l 87 174 l 87 260 l 0 260 l 0 347 l 0 434 l 87 434 l 87 521 l 0 521 l 0 608 l 87 608 l 87 694 l 174 694 l 260 694 l 347 694 l 434 694 l 434 608 l 521 608 l 521 521 l 434 521 l 434 434 l 521 434 l 521 347 l 521 260 l 434 260 l 434 174 l 347 174 m 260 260 l 347 260 l 347 347 l 347 434 l 260 434 l 174 434 l 174 347 l 174 260 l 260 260 m 260 521 l 347 521 l 347 608 l 260 608 l 174 608 l 174 521 l 260 521 z "},"9":{"ha":608,"x_min":0,"x_max":521,"o":"m 347 174 l 260 174 l 174 174 l 87 174 l 87 260 l 174 260 l 260 260 l 347 260 l 347 347 l 260 347 l 174 347 l 87 347 l 87 434 l 0 434 l 0 521 l 0 608 l 87 608 l 87 694 l 174 694 l 260 694 l 347 694 l 434 694 l 434 608 l 521 608 l 521 521 l 521 434 l 521 347 l 521 260 l 434 260 l 434 174 l 347 174 m 260 434 l 347 434 l 347 521 l 347 608 l 260 608 l 174 608 l 174 521 l 174 434 l 260 434 z "}," ":{"ha":434,"x_min":0,"x_max":0,"o":""},"!":{"ha":260,"x_min":0,"x_max":174,"o":"m 87 260 l 174 260 l 174 174 l 87 174 l 0 174 l 0 260 l 87 260 m 87 347 l 0 347 l 0 434 l 0 521 l 0 608 l 0 694 l 87 694 l 174 694 l 174 608 l 174 521 l 174 434 l 174 347 l 87 347 z "},"\"":{"ha":521,"x_min":0,"x_max":434,"o":"m 347 434 l 347 521 l 260 521 l 260 608 l 260 694 l 347 694 l 434 694 l 434 608 l 434 521 l 434 434 l 347 434 m 87 434 l 87 521 l 0 521 l 0 608 l 0 694 l 87 694 l 174 694 l 174 608 l 174 521 l 174 434 l 87 434 z "},"#":{"ha":694,"x_min":0,"x_max":608,"o":"m 434 174 l 347 174 l 347 260 l 260 260 l 260 174 l 174 174 l 87 174 l 87 260 l 0 260 l 0 347 l 87 347 l 87 434 l 87 521 l 0 521 l 0 608 l 87 608 l 87 694 l 174 694 l 260 694 l 260 608 l 347 608 l 347 694 l 434 694 l 521 694 l 521 608 l 608 608 l 608 521 l 521 521 l 521 434 l 521 347 l 608 347 l 608 260 l 521 260 l 521 174 l 434 174 m 347 347 l 347 434 l 347 521 l 260 521 l 260 434 l 260 347 l 347 347 z "},"$":{"ha":608,"x_min":0,"x_max":521,"o":"m 260 87 l 174 87 l 174 174 l 87 174 l 87 260 l 0 260 l 0 347 l 87 347 l 174 347 l 174 434 l 87 434 l 87 521 l 0 521 l 0 608 l 87 608 l 87 694 l 174 694 l 174 781 l 260 781 l 347 781 l 347 694 l 434 694 l 521 694 l 521 608 l 434 608 l 347 608 l 347 521 l 434 521 l 434 434 l 521 434 l 521 347 l 521 260 l 434 260 l 434 174 l 347 174 l 347 87 l 260 87 z "},"%":{"ha":694,"x_min":0,"x_max":608,"o":"m 521 174 l 434 174 l 434 260 l 434 347 l 521 347 l 608 347 l 608 260 l 608 174 l 521 174 m 87 174 l 0 174 l 0 260 l 87 260 l 87 347 l 174 347 l 174 434 l 260 434 l 260 521 l 347 521 l 347 608 l 434 608 l 434 694 l 521 694 l 608 694 l 608 608 l 521 608 l 521 521 l 434 521 l 434 434 l 347 434 l 347 347 l 260 347 l 260 260 l 174 260 l 174 174 l 87 174 m 87 521 l 0 521 l 0 608 l 0 694 l 87 694 l 174 694 l 174 608 l 174 521 l 87 521 z "},"&":{"ha":608,"x_min":0,"x_max":521,"o":"m 434 174 l 347 174 l 260 174 l 174 174 l 87 174 l 87 260 l 0 260 l 0 347 l 0 434 l 87 434 l 87 521 l 0 521 l 0 608 l 87 608 l 87 694 l 174 694 l 260 694 l 347 694 l 434 694 l 434 608 l 521 608 l 521 521 l 434 521 l 434 434 l 521 434 l 521 347 l 434 347 l 434 260 l 521 260 l 521 174 l 434 174 m 260 260 l 260 347 l 174 347 l 174 260 l 260 260 m 260 521 l 347 521 l 347 608 l 260 608 l 174 608 l 174 521 l 260 521 z "},"'":{"ha":260,"x_min":0,"x_max":174,"o":"m 87 434 l 87 521 l 0 521 l 0 608 l 0 694 l 87 694 l 174 694 l 174 608 l 174 521 l 174 434 l 87 434 z "},"(":{"ha":347,"x_min":0,"x_max":260,"o":"m 174 87 l 87 87 l 87 174 l 0 174 l 0 260 l 0 347 l 0 434 l 0 521 l 0 608 l 0 694 l 87 694 l 87 781 l 174 781 l 260 781 l 260 694 l 174 694 l 174 608 l 174 521 l 174 434 l 174 347 l 174 260 l 174 174 l 260 174 l 260 87 l 174 87 z "},")":{"ha":347,"x_min":0,"x_max":260,"o":"m 87 87 l 0 87 l 0 174 l 87 174 l 87 260 l 87 347 l 87 434 l 87 521 l 87 608 l 87 694 l 0 694 l 0 781 l 87 781 l 174 781 l 174 694 l 260 694 l 260 608 l 260 521 l 260 434 l 260 347 l 260 260 l 260 174 l 174 174 l 174 87 l 87 87 z "},"*":{"ha":608,"x_min":0,"x_max":521,"o":"m 434 260 l 347 260 l 347 347 l 260 347 l 174 347 l 174 260 l 87 260 l 0 260 l 0 347 l 87 347 l 87 434 l 87 521 l 0 521 l 0 608 l 87 608 l 174 608 l 174 521 l 260 521 l 347 521 l 347 608 l 434 608 l 521 608 l 521 521 l 434 521 l 434 434 l 434 347 l 521 347 l 521 260 l 434 260 z "},"+":{"ha":608,"x_min":0,"x_max":521,"o":"m 260 260 l 174 260 l 174 347 l 174 434 l 87 434 l 0 434 l 0 521 l 87 521 l 174 521 l 174 608 l 174 694 l 260 694 l 347 694 l 347 608 l 347 521 l 434 521 l 521 521 l 521 434 l 434 434 l 347 434 l 347 347 l 347 260 l 260 260 z "},",":{"ha":260,"x_min":0,"x_max":174,"o":"m 87 87 l 87 174 l 0 174 l 0 260 l 0 347 l 87 347 l 174 347 l 174 260 l 174 174 l 174 87 l 87 87 z "},"-":{"ha":608,"x_min":0,"x_max":521,"o":"m 434 521 l 521 521 l 521 434 l 434 434 l 347 434 l 260 434 l 174 434 l 87 434 l 0 434 l 0 521 l 87 521 l 174 521 l 260 521 l 347 521 l 434 521 z "},".":{"ha":260,"x_min":0,"x_max":174,"o":"m 87 174 l 0 174 l 0 260 l 0 347 l 87 347 l 174 347 l 174 260 l 174 174 l 87 174 z "},"/":{"ha":694,"x_min":0,"x_max":608,"o":"m 0 87 l 0 174 l 0 260 l 87 260 l 87 347 l 174 347 l 174 434 l 260 434 l 260 521 l 347 521 l 347 608 l 434 608 l 434 694 l 521 694 l 521 781 l 608 781 l 608 694 l 608 608 l 521 608 l 521 521 l 434 521 l 434 434 l 347 434 l 347 347 l 260 347 l 260 260 l 174 260 l 174 174 l 87 174 l 87 87 l 0 87 z "},":":{"ha":260,"x_min":0,"x_max":174,"o":"m 87 174 l 0 174 l 0 260 l 0 347 l 87 347 l 174 347 l 174 260 l 174 174 l 87 174 m 87 434 l 0 434 l 0 521 l 0 608 l 87 608 l 174 608 l 174 521 l 174 434 l 87 434 z "},";":{"ha":260,"x_min":0,"x_max":174,"o":"m 87 87 l 87 174 l 0 174 l 0 260 l 0 347 l 87 347 l 174 347 l 174 260 l 174 174 l 174 87 l 87 87 m 87 434 l 0 434 l 0 521 l 0 608 l 87 608 l 174 608 l 174 521 l 174 434 l 87 434 z "},"<":{"ha":521,"x_min":0,"x_max":434,"o":"m 347 174 l 260 174 l 260 260 l 174 260 l 174 347 l 87 347 l 87 434 l 0 434 l 0 521 l 87 521 l 87 608 l 174 608 l 174 694 l 260 694 l 260 781 l 347 781 l 434 781 l 434 694 l 347 694 l 347 608 l 260 608 l 260 521 l 174 521 l 174 434 l 260 434 l 260 347 l 347 347 l 347 260 l 434 260 l 434 174 l 347 174 z "},"=":{"ha":608,"x_min":0,"x_max":521,"o":"m 434 434 l 521 434 l 521 347 l 434 347 l 347 347 l 260 347 l 174 347 l 87 347 l 0 347 l 0 434 l 87 434 l 174 434 l 260 434 l 347 434 l 434 434 m 434 608 l 521 608 l 521 521 l 434 521 l 347 521 l 260 521 l 174 521 l 87 521 l 0 521 l 0 608 l 87 608 l 174 608 l 260 608 l 347 608 l 434 608 z "},">":{"ha":521,"x_min":0,"x_max":434,"o":"m 87 174 l 0 174 l 0 260 l 87 260 l 87 347 l 174 347 l 174 434 l 260 434 l 260 521 l 174 521 l 174 608 l 87 608 l 87 694 l 0 694 l 0 781 l 87 781 l 174 781 l 174 694 l 260 694 l 260 608 l 347 608 l 347 521 l 434 521 l 434 434 l 347 434 l 347 347 l 260 347 l 260 260 l 174 260 l 174 174 l 87 174 z "},"?":{"ha":608,"x_min":0,"x_max":521,"o":"m 260 260 l 347 260 l 347 174 l 260 174 l 174 174 l 174 260 l 260 260 m 260 347 l 174 347 l 174 434 l 260 434 l 260 521 l 347 521 l 347 608 l 260 608 l 174 608 l 174 521 l 87 521 l 0 521 l 0 608 l 87 608 l 87 694 l 174 694 l 260 694 l 347 694 l 434 694 l 434 608 l 521 608 l 521 521 l 434 521 l 434 434 l 347 434 l 347 347 l 260 347 z "},"@":{"ha":781,"x_min":0,"x_max":694,"o":"m 521 174 l 434 174 l 347 174 l 260 174 l 174 174 l 87 174 l 87 260 l 0 260 l 0 347 l 0 434 l 0 521 l 0 608 l 0 694 l 0 781 l 87 781 l 87 868 l 174 868 l 260 868 l 347 868 l 434 868 l 521 868 l 608 868 l 608 781 l 694 781 l 694 694 l 608 694 l 521 694 l 521 781 l 434 781 l 347 781 l 260 781 l 174 781 l 174 694 l 174 608 l 260 608 l 260 694 l 347 694 l 434 694 l 521 694 l 521 608 l 608 608 l 694 608 l 694 521 l 694 434 l 694 347 l 694 260 l 608 260 l 608 174 l 521 174 m 434 260 l 521 260 l 521 347 l 434 347 l 347 347 l 260 347 l 260 434 l 174 434 l 174 347 l 174 260 l 260 260 l 347 260 l 434 260 m 434 434 l 434 521 l 434 608 l 347 608 l 347 521 l 347 434 l 434 434 z "},"A":{"ha":608,"x_min":0,"x_max":521,"o":"m 434 174 l 347 174 l 347 260 l 347 347 l 260 347 l 174 347 l 174 260 l 174 174 l 87 174 l 0 174 l 0 260 l 0 347 l 0 434 l 0 521 l 0 608 l 87 608 l 87 694 l 174 694 l 260 694 l 347 694 l 434 694 l 434 608 l 521 608 l 521 521 l 521 434 l 521 347 l 521 260 l 521 174 l 434 174 m 260 434 l 347 434 l 347 521 l 347 608 l 260 608 l 174 608 l 174 521 l 174 434 l 260 434 z "},"B":{"ha":608,"x_min":0,"x_max":521,"o":"m 347 174 l 260 174 l 174 174 l 87 174 l 0 174 l 0 260 l 0 347 l 0 434 l 0 521 l 0 608 l 0 694 l 87 694 l 174 694 l 260 694 l 347 694 l 434 694 l 434 608 l 521 608 l 521 521 l 434 521 l 434 434 l 521 434 l 521 347 l 521 260 l 434 260 l 434 174 l 347 174 m 260 260 l 347 260 l 347 347 l 347 434 l 260 434 l 174 434 l 174 347 l 174 260 l 260 260 m 260 521 l 347 521 l 347 608 l 260 608 l 174 608 l 174 521 l 260 521 z "},"C":{"ha":608,"x_min":0,"x_max":521,"o":"m 347 174 l 260 174 l 174 174 l 87 174 l 87 260 l 0 260 l 0 347 l 0 434 l 0 521 l 0 608 l 87 608 l 87 694 l 174 694 l 260 694 l 347 694 l 434 694 l 434 608 l 521 608 l 521 521 l 434 521 l 347 521 l 347 608 l 260 608 l 174 608 l 174 521 l 174 434 l 174 347 l 174 260 l 260 260 l 347 260 l 347 347 l 434 347 l 521 347 l 521 260 l 434 260 l 434 174 l 347 174 z "},"D":{"ha":608,"x_min":0,"x_max":521,"o":"m 347 174 l 260 174 l 174 174 l 87 174 l 0 174 l 0 260 l 0 347 l 0 434 l 0 521 l 0 608 l 0 694 l 87 694 l 174 694 l 260 694 l 347 694 l 434 694 l 434 608 l 521 608 l 521 521 l 521 434 l 521 347 l 521 260 l 434 260 l 434 174 l 347 174 m 260 260 l 347 260 l 347 347 l 347 434 l 347 521 l 347 608 l 260 608 l 174 608 l 174 521 l 174 434 l 174 347 l 174 260 l 260 260 z "},"E":{"ha":608,"x_min":0,"x_max":521,"o":"m 434 260 l 521 260 l 521 174 l 434 174 l 347 174 l 260 174 l 174 174 l 87 174 l 0 174 l 0 260 l 0 347 l 0 434 l 0 521 l 0 608 l 0 694 l 87 694 l 174 694 l 260 694 l 347 694 l 434 694 l 521 694 l 521 608 l 434 608 l 347 608 l 260 608 l 174 608 l 174 521 l 260 521 l 347 521 l 347 434 l 260 434 l 174 434 l 174 347 l 174 260 l 260 260 l 347 260 l 434 260 z "},"F":{"ha":608,"x_min":0,"x_max":521,"o":"m 87 174 l 0 174 l 0 260 l 0 347 l 0 434 l 0 521 l 0 608 l 0 694 l 87 694 l 174 694 l 260 694 l 347 694 l 434 694 l 521 694 l 521 608 l 434 608 l 347 608 l 260 608 l 174 608 l 174 521 l 260 521 l 347 521 l 347 434 l 260 434 l 174 434 l 174 347 l 174 260 l 174 174 l 87 174 z "},"G":{"ha":608,"x_min":0,"x_max":521,"o":"m 347 174 l 260 174 l 174 174 l 87 174 l 87 260 l 0 260 l 0 347 l 0 434 l 0 521 l 0 608 l 87 608 l 87 694 l 174 694 l 260 694 l 347 694 l 434 694 l 434 608 l 521 608 l 521 521 l 434 521 l 347 521 l 347 608 l 260 608 l 174 608 l 174 521 l 174 434 l 174 347 l 174 260 l 260 260 l 347 260 l 347 347 l 260 347 l 260 434 l 347 434 l 434 434 l 521 434 l 521 347 l 521 260 l 434 260 l 434 174 l 347 174 z "},"H":{"ha":608,"x_min":0,"x_max":521,"o":"m 434 174 l 347 174 l 347 260 l 347 347 l 347 434 l 260 434 l 174 434 l 174 347 l 174 260 l 174 174 l 87 174 l 0 174 l 0 260 l 0 347 l 0 434 l 0 521 l 0 608 l 0 694 l 87 694 l 174 694 l 174 608 l 174 521 l 260 521 l 347 521 l 347 608 l 347 694 l 434 694 l 521 694 l 521 608 l 521 521 l 521 434 l 521 347 l 521 260 l 521 174 l 434 174 z "},"I":{"ha":434,"x_min":0,"x_max":347,"o":"m 260 174 l 174 174 l 87 174 l 0 174 l 0 260 l 87 260 l 87 347 l 87 434 l 87 521 l 87 608 l 0 608 l 0 694 l 87 694 l 174 694 l 260 694 l 347 694 l 347 608 l 260 608 l 260 521 l 260 434 l 260 347 l 260 260 l 347 260 l 347 174 l 260 174 z "},"J":{"ha":608,"x_min":0,"x_max":521,"o":"m 347 174 l 260 174 l 174 174 l 87 174 l 87 260 l 0 260 l 0 347 l 87 347 l 174 347 l 174 260 l 260 260 l 347 260 l 347 347 l 347 434 l 347 521 l 347 608 l 347 694 l 434 694 l 521 694 l 521 608 l 521 521 l 521 434 l 521 347 l 521 260 l 434 260 l 434 174 l 347 174 z "},"K":{"ha":608,"x_min":0,"x_max":521,"o":"m 434 174 l 347 174 l 347 260 l 260 260 l 260 347 l 174 347 l 174 260 l 174 174 l 87 174 l 0 174 l 0 260 l 0 347 l 0 434 l 0 521 l 0 608 l 0 694 l 87 694 l 174 694 l 174 608 l 174 521 l 260 521 l 260 608 l 347 608 l 347 694 l 434 694 l 521 694 l 521 608 l 434 608 l 434 521 l 347 521 l 347 434 l 347 347 l 434 347 l 434 260 l 521 260 l 521 174 l 434 174 z "},"L":{"ha":608,"x_min":0,"x_max":521,"o":"m 434 260 l 521 260 l 521 174 l 434 174 l 347 174 l 260 174 l 174 174 l 87 174 l 0 174 l 0 260 l 0 347 l 0 434 l 0 521 l 0 608 l 0 694 l 87 694 l 174 694 l 174 608 l 174 521 l 174 434 l 174 347 l 174 260 l 260 260 l 347 260 l 434 260 z "},"M":{"ha":781,"x_min":0,"x_max":694,"o":"m 608 174 l 521 174 l 521 260 l 521 347 l 521 434 l 434 434 l 434 347 l 347 347 l 260 347 l 260 434 l 174 434 l 174 347 l 174 260 l 174 174 l 87 174 l 0 174 l 0 260 l 0 347 l 0 434 l 0 521 l 0 608 l 0 694 l 87 694 l 174 694 l 174 608 l 260 608 l 260 521 l 347 521 l 434 521 l 434 608 l 521 608 l 521 694 l 608 694 l 694 694 l 694 608 l 694 521 l 694 434 l 694 347 l 694 260 l 694 174 l 608 174 z "},"N":{"ha":608,"x_min":0,"x_max":521,"o":"m 434 174 l 347 174 l 347 260 l 347 347 l 260 347 l 260 434 l 174 434 l 174 347 l 174 260 l 174 174 l 87 174 l 0 174 l 0 260 l 0 347 l 0 434 l 0 521 l 0 608 l 0 694 l 87 694 l 174 694 l 174 608 l 260 608 l 260 521 l 347 521 l 347 608 l 347 694 l 434 694 l 521 694 l 521 608 l 521 521 l 521 434 l 521 347 l 521 260 l 521 174 l 434 174 z "},"O":{"ha":608,"x_min":0,"x_max":521,"o":"m 347 174 l 260 174 l 174 174 l 87 174 l 87 260 l 0 260 l 0 347 l 0 434 l 0 521 l 0 608 l 87 608 l 87 694 l 174 694 l 260 694 l 347 694 l 434 694 l 434 608 l 521 608 l 521 521 l 521 434 l 521 347 l 521 260 l 434 260 l 434 174 l 347 174 m 260 260 l 347 260 l 347 347 l 347 434 l 347 521 l 347 608 l 260 608 l 174 608 l 174 521 l 174 434 l 174 347 l 174 260 l 260 260 z "},"P":{"ha":608,"x_min":0,"x_max":521,"o":"m 87 174 l 0 174 l 0 260 l 0 347 l 0 434 l 0 521 l 0 608 l 0 694 l 87 694 l 174 694 l 260 694 l 347 694 l 434 694 l 434 608 l 521 608 l 521 521 l 521 434 l 434 434 l 434 347 l 347 347 l 260 347 l 174 347 l 174 260 l 174 174 l 87 174 m 260 434 l 347 434 l 347 521 l 347 608 l 260 608 l 174 608 l 174 521 l 174 434 l 260 434 z "},"Q":{"ha":608,"x_min":0,"x_max":521,"o":"m 434 174 l 347 174 l 347 260 l 260 260 l 260 347 l 347 347 l 347 434 l 347 521 l 347 608 l 260 608 l 174 608 l 174 521 l 174 434 l 174 347 l 174 260 l 260 260 l 260 174 l 174 174 l 87 174 l 87 260 l 0 260 l 0 347 l 0 434 l 0 521 l 0 608 l 87 608 l 87 694 l 174 694 l 260 694 l 347 694 l 434 694 l 434 608 l 521 608 l 521 521 l 521 434 l 521 347 l 434 347 l 434 260 l 521 260 l 521 174 l 434 174 z "},"R":{"ha":608,"x_min":0,"x_max":521,"o":"m 434 174 l 347 174 l 347 260 l 260 260 l 260 347 l 174 347 l 174 260 l 174 174 l 87 174 l 0 174 l 0 260 l 0 347 l 0 434 l 0 521 l 0 608 l 0 694 l 87 694 l 174 694 l 260 694 l 347 694 l 434 694 l 434 608 l 521 608 l 521 521 l 521 434 l 434 434 l 434 347 l 434 260 l 521 260 l 521 174 l 434 174 m 260 434 l 347 434 l 347 521 l 347 608 l 260 608 l 174 608 l 174 521 l 174 434 l 260 434 z "},"S":{"ha":608,"x_min":0,"x_max":521,"o":"m 347 174 l 260 174 l 174 174 l 87 174 l 87 260 l 0 260 l 0 347 l 87 347 l 174 347 l 174 260 l 260 260 l 347 260 l 347 347 l 347 434 l 260 434 l 174 434 l 87 434 l 87 521 l 0 521 l 0 608 l 87 608 l 87 694 l 174 694 l 260 694 l 347 694 l 434 694 l 434 608 l 347 608 l 260 608 l 174 608 l 174 521 l 260 521 l 347 521 l 434 521 l 434 434 l 521 434 l 521 347 l 521 260 l 434 260 l 434 174 l 347 174 z "},"T":{"ha":608,"x_min":0,"x_max":521,"o":"m 260 174 l 174 174 l 174 260 l 174 347 l 174 434 l 174 521 l 174 608 l 87 608 l 0 608 l 0 694 l 87 694 l 174 694 l 260 694 l 347 694 l 434 694 l 521 694 l 521 608 l 434 608 l 347 608 l 347 521 l 347 434 l 347 347 l 347 260 l 347 174 l 260 174 z "},"U":{"ha":608,"x_min":0,"x_max":521,"o":"m 347 174 l 260 174 l 174 174 l 87 174 l 87 260 l 0 260 l 0 347 l 0 434 l 0 521 l 0 608 l 0 694 l 87 694 l 174 694 l 174 608 l 174 521 l 174 434 l 174 347 l 174 260 l 260 260 l 347 260 l 347 347 l 347 434 l 347 521 l 347 608 l 347 694 l 434 694 l 521 694 l 521 608 l 521 521 l 521 434 l 521 347 l 521 260 l 434 260 l 434 174 l 347 174 z "},"V":{"ha":608,"x_min":0,"x_max":521,"o":"m 260 174 l 174 174 l 174 260 l 87 260 l 87 347 l 0 347 l 0 434 l 0 521 l 0 608 l 0 694 l 87 694 l 174 694 l 174 608 l 174 521 l 174 434 l 174 347 l 260 347 l 347 347 l 347 434 l 347 521 l 347 608 l 347 694 l 434 694 l 521 694 l 521 608 l 521 521 l 521 434 l 521 347 l 434 347 l 434 260 l 347 260 l 347 174 l 260 174 z "},"W":{"ha":781,"x_min":0,"x_max":694,"o":"m 521 174 l 434 174 l 347 174 l 260 174 l 174 174 l 87 174 l 87 260 l 0 260 l 0 347 l 0 434 l 0 521 l 0 608 l 0 694 l 87 694 l 174 694 l 174 608 l 174 521 l 174 434 l 174 347 l 174 260 l 260 260 l 260 347 l 260 434 l 260 521 l 260 608 l 347 608 l 434 608 l 434 521 l 434 434 l 434 347 l 434 260 l 521 260 l 521 347 l 521 434 l 521 521 l 521 608 l 521 694 l 608 694 l 694 694 l 694 608 l 694 521 l 694 434 l 694 347 l 694 260 l 608 260 l 608 174 l 521 174 z "},"X":{"ha":608,"x_min":0,"x_max":521,"o":"m 434 174 l 347 174 l 347 260 l 260 260 l 174 260 l 174 174 l 87 174 l 0 174 l 0 260 l 87 260 l 87 347 l 174 347 l 174 434 l 174 521 l 87 521 l 87 608 l 0 608 l 0 694 l 87 694 l 174 694 l 174 608 l 260 608 l 347 608 l 347 694 l 434 694 l 521 694 l 521 608 l 434 608 l 434 521 l 347 521 l 347 434 l 347 347 l 434 347 l 434 260 l 521 260 l 521 174 l 434 174 z "},"Y":{"ha":608,"x_min":0,"x_max":521,"o":"m 260 174 l 174 174 l 174 260 l 174 347 l 87 347 l 87 434 l 0 434 l 0 521 l 0 608 l 0 694 l 87 694 l 174 694 l 174 608 l 174 521 l 174 434 l 260 434 l 347 434 l 347 521 l 347 608 l 347 694 l 434 694 l 521 694 l 521 608 l 521 521 l 521 434 l 434 434 l 434 347 l 347 347 l 347 260 l 347 174 l 260 174 z "},"Z":{"ha":608,"x_min":0,"x_max":521,"o":"m 434 260 l 521 260 l 521 174 l 434 174 l 347 174 l 260 174 l 174 174 l 87 174 l 0 174 l 0 260 l 0 347 l 87 347 l 87 434 l 174 434 l 174 521 l 260 521 l 260 608 l 174 608 l 87 608 l 0 608 l 0 694 l 87 694 l 174 694 l 260 694 l 347 694 l 434 694 l 521 694 l 521 608 l 521 521 l 434 521 l 434 434 l 347 434 l 347 347 l 260 347 l 260 260 l 347 260 l 434 260 z "},"[":{"ha":434,"x_min":0,"x_max":347,"o":"m 260 174 l 347 174 l 347 87 l 260 87 l 174 87 l 87 87 l 0 87 l 0 174 l 0 260 l 0 347 l 0 434 l 0 521 l 0 608 l 0 694 l 0 781 l 87 781 l 174 781 l 260 781 l 347 781 l 347 694 l 260 694 l 174 694 l 174 608 l 174 521 l 174 434 l 174 347 l 174 260 l 174 174 l 260 174 z "},"\\":{"ha":694,"x_min":0,"x_max":608,"o":"m 521 87 l 521 174 l 434 174 l 434 260 l 347 260 l 347 347 l 260 347 l 260 434 l 174 434 l 174 521 l 87 521 l 87 608 l 0 608 l 0 694 l 0 781 l 87 781 l 87 694 l 174 694 l 174 608 l 260 608 l 260 521 l 347 521 l 347 434 l 434 434 l 434 347 l 521 347 l 521 260 l 608 260 l 608 174 l 608 87 l 521 87 z "},"]":{"ha":434,"x_min":0,"x_max":347,"o":"m 260 87 l 174 87 l 87 87 l 0 87 l 0 174 l 87 174 l 174 174 l 174 260 l 174 347 l 174 434 l 174 521 l 174 608 l 174 694 l 87 694 l 0 694 l 0 781 l 87 781 l 174 781 l 260 781 l 347 781 l 347 694 l 347 608 l 347 521 l 347 434 l 347 347 l 347 260 l 347 174 l 347 87 l 260 87 z "},"^":{"ha":608,"x_min":0,"x_max":521,"o":"m 434 434 l 347 434 l 347 521 l 260 521 l 174 521 l 174 434 l 87 434 l 0 434 l 0 521 l 87 521 l 87 608 l 174 608 l 174 694 l 260 694 l 347 694 l 347 608 l 434 608 l 434 521 l 521 521 l 521 434 l 434 434 z "},"_":{"ha":608,"x_min":0,"x_max":521,"o":"m 434 174 l 521 174 l 521 87 l 434 87 l 347 87 l 260 87 l 174 87 l 87 87 l 0 87 l 0 174 l 87 174 l 174 174 l 260 174 l 347 174 l 434 174 z "},"`":{"ha":260,"x_min":0,"x_max":174,"o":"m 87 434 l 87 521 l 0 521 l 0 608 l 0 694 l 87 694 l 174 694 l 174 608 l 174 521 l 174 434 l 87 434 z "},"a":{"ha":608,"x_min":0,"x_max":521,"o":"m 434 174 l 347 174 l 260 174 l 174 174 l 87 174 l 87 260 l 0 260 l 0 347 l 87 347 l 87 434 l 174 434 l 260 434 l 347 434 l 347 521 l 260 521 l 174 521 l 87 521 l 87 608 l 174 608 l 260 608 l 347 608 l 434 608 l 434 521 l 521 521 l 521 434 l 521 347 l 521 260 l 521 174 l 434 174 m 260 260 l 347 260 l 347 347 l 260 347 l 174 347 l 174 260 l 260 260 z "},"b":{"ha":608,"x_min":0,"x_max":521,"o":"m 347 174 l 260 174 l 174 174 l 87 174 l 0 174 l 0 260 l 0 347 l 0 434 l 0 521 l 0 608 l 0 694 l 87 694 l 174 694 l 174 608 l 260 608 l 347 608 l 434 608 l 434 521 l 521 521 l 521 434 l 521 347 l 521 260 l 434 260 l 434 174 l 347 174 m 260 260 l 347 260 l 347 347 l 347 434 l 347 521 l 260 521 l 174 521 l 174 434 l 174 347 l 174 260 l 260 260 z "},"c":{"ha":608,"x_min":0,"x_max":521,"o":"m 347 174 l 260 174 l 174 174 l 87 174 l 87 260 l 0 260 l 0 347 l 0 434 l 0 521 l 87 521 l 87 608 l 174 608 l 260 608 l 347 608 l 434 608 l 434 521 l 521 521 l 521 434 l 434 434 l 347 434 l 347 521 l 260 521 l 174 521 l 174 434 l 174 347 l 174 260 l 260 260 l 347 260 l 347 347 l 434 347 l 521 347 l 521 260 l 434 260 l 434 174 l 347 174 z "},"d":{"ha":608,"x_min":0,"x_max":521,"o":"m 434 174 l 347 174 l 260 174 l 174 174 l 87 174 l 87 260 l 0 260 l 0 347 l 0 434 l 0 521 l 87 521 l 87 608 l 174 608 l 260 608 l 347 608 l 347 694 l 434 694 l 521 694 l 521 608 l 521 521 l 521 434 l 521 347 l 521 260 l 521 174 l 434 174 m 260 260 l 347 260 l 347 347 l 347 434 l 347 521 l 260 521 l 174 521 l 174 434 l 174 347 l 174 260 l 260 260 z "},"e":{"ha":608,"x_min":0,"x_max":521,"o":"m 347 260 l 434 260 l 434 174 l 347 174 l 260 174 l 174 174 l 87 174 l 87 260 l 0 260 l 0 347 l 0 434 l 0 521 l 87 521 l 87 608 l 174 608 l 260 608 l 347 608 l 434 608 l 434 521 l 521 521 l 521 434 l 434 434 l 434 347 l 347 347 l 260 347 l 174 347 l 174 260 l 260 260 l 347 260 m 260 434 l 347 434 l 347 521 l 260 521 l 174 521 l 174 434 l 260 434 z "},"f":{"ha":434,"x_min":0,"x_max":347,"o":"m 87 174 l 0 174 l 0 260 l 0 347 l 0 434 l 0 521 l 0 608 l 87 608 l 87 694 l 174 694 l 260 694 l 347 694 l 347 608 l 260 608 l 174 608 l 174 521 l 260 521 l 347 521 l 347 434 l 260 434 l 174 434 l 174 347 l 174 260 l 174 174 l 87 174 z "},"g":{"ha":608,"x_min":0,"x_max":521,"o":"m 347 87 l 260 87 l 174 87 l 87 87 l 87 174 l 174 174 l 260 174 l 347 174 l 347 260 l 260 260 l 174 260 l 87 260 l 87 347 l 0 347 l 0 434 l 0 521 l 87 521 l 87 608 l 174 608 l 260 608 l 347 608 l 434 608 l 521 608 l 521 521 l 521 434 l 521 347 l 521 260 l 521 174 l 434 174 l 434 87 l 347 87 m 260 347 l 347 347 l 347 434 l 347 521 l 260 521 l 174 521 l 174 434 l 174 347 l 260 347 z "},"h":{"ha":608,"x_min":0,"x_max":521,"o":"m 434 174 l 347 174 l 347 260 l 347 347 l 347 434 l 347 521 l 260 521 l 174 521 l 174 434 l 174 347 l 174 260 l 174 174 l 87 174 l 0 174 l 0 260 l 0 347 l 0 434 l 0 521 l 0 608 l 0 694 l 87 694 l 174 694 l 174 608 l 260 608 l 347 608 l 434 608 l 434 521 l 521 521 l 521 434 l 521 347 l 521 260 l 521 174 l 434 174 z "},"i":{"ha":260,"x_min":0,"x_max":174,"o":"m 87 174 l 0 174 l 0 260 l 0 347 l 0 434 l 0 521 l 87 521 l 174 521 l 174 434 l 174 347 l 174 260 l 174 174 l 87 174 m 87 694 l 174 694 l 174 608 l 87 608 l 0 608 l 0 694 l 87 694 z "},"j":{"ha":347,"x_min":0,"x_max":260,"o":"m 87 87 l 0 87 l 0 174 l 87 174 l 87 260 l 87 347 l 87 434 l 87 521 l 174 521 l 260 521 l 260 434 l 260 347 l 260 260 l 260 174 l 174 174 l 174 87 l 87 87 m 174 694 l 260 694 l 260 608 l 174 608 l 87 608 l 87 694 l 174 694 z "},"k":{"ha":608,"x_min":0,"x_max":521,"o":"m 434 174 l 347 174 l 347 260 l 260 260 l 260 347 l 174 347 l 174 260 l 174 174 l 87 174 l 0 174 l 0 260 l 0 347 l 0 434 l 0 521 l 0 608 l 0 694 l 87 694 l 174 694 l 174 608 l 174 521 l 174 434 l 260 434 l 260 521 l 347 521 l 347 608 l 434 608 l 521 608 l 521 521 l 434 521 l 434 434 l 347 434 l 347 347 l 434 347 l 434 260 l 521 260 l 521 174 l 434 174 z "},"l":{"ha":347,"x_min":0,"x_max":260,"o":"m 174 174 l 87 174 l 87 260 l 0 260 l 0 347 l 0 434 l 0 521 l 0 608 l 0 694 l 87 694 l 174 694 l 174 608 l 174 521 l 174 434 l 174 347 l 174 260 l 260 260 l 260 174 l 174 174 z "},"m":{"ha":781,"x_min":0,"x_max":694,"o":"m 608 174 l 521 174 l 521 260 l 521 347 l 521 434 l 521 521 l 434 521 l 434 434 l 434 347 l 434 260 l 434 174 l 347 174 l 260 174 l 260 260 l 260 347 l 260 434 l 260 521 l 174 521 l 174 434 l 174 347 l 174 260 l 174 174 l 87 174 l 0 174 l 0 260 l 0 347 l 0 434 l 0 521 l 0 608 l 87 608 l 174 608 l 260 608 l 347 608 l 434 608 l 521 608 l 608 608 l 608 521 l 694 521 l 694 434 l 694 347 l 694 260 l 694 174 l 608 174 z "},"n":{"ha":608,"x_min":0,"x_max":521,"o":"m 434 174 l 347 174 l 347 260 l 347 347 l 347 434 l 347 521 l 260 521 l 174 521 l 174 434 l 174 347 l 174 260 l 174 174 l 87 174 l 0 174 l 0 260 l 0 347 l 0 434 l 0 521 l 0 608 l 87 608 l 174 608 l 260 608 l 347 608 l 434 608 l 434 521 l 521 521 l 521 434 l 521 347 l 521 260 l 521 174 l 434 174 z "},"o":{"ha":608,"x_min":0,"x_max":521,"o":"m 347 174 l 260 174 l 174 174 l 87 174 l 87 260 l 0 260 l 0 347 l 0 434 l 0 521 l 87 521 l 87 608 l 174 608 l 260 608 l 347 608 l 434 608 l 434 521 l 521 521 l 521 434 l 521 347 l 521 260 l 434 260 l 434 174 l 347 174 m 260 260 l 347 260 l 347 347 l 347 434 l 347 521 l 260 521 l 174 521 l 174 434 l 174 347 l 174 260 l 260 260 z "},"p":{"ha":608,"x_min":0,"x_max":521,"o":"m 87 87 l 0 87 l 0 174 l 0 260 l 0 347 l 0 434 l 0 521 l 0 608 l 87 608 l 174 608 l 260 608 l 347 608 l 434 608 l 434 521 l 521 521 l 521 434 l 521 347 l 521 260 l 434 260 l 434 174 l 347 174 l 260 174 l 174 174 l 174 87 l 87 87 m 260 260 l 347 260 l 347 347 l 347 434 l 347 521 l 260 521 l 174 521 l 174 434 l 174 347 l 174 260 l 260 260 z "},"q":{"ha":608,"x_min":0,"x_max":521,"o":"m 434 87 l 347 87 l 347 174 l 260 174 l 174 174 l 87 174 l 87 260 l 0 260 l 0 347 l 0 434 l 0 521 l 87 521 l 87 608 l 174 608 l 260 608 l 347 608 l 434 608 l 521 608 l 521 521 l 521 434 l 521 347 l 521 260 l 521 174 l 521 87 l 434 87 m 260 260 l 347 260 l 347 347 l 347 434 l 347 521 l 260 521 l 174 521 l 174 434 l 174 347 l 174 260 l 260 260 z "},"r":{"ha":434,"x_min":0,"x_max":347,"o":"m 87 174 l 0 174 l 0 260 l 0 347 l 0 434 l 0 521 l 87 521 l 87 608 l 174 608 l 260 608 l 347 608 l 347 521 l 260 521 l 174 521 l 174 434 l 174 347 l 174 260 l 174 174 l 87 174 z "},"s":{"ha":608,"x_min":0,"x_max":521,"o":"m 347 174 l 260 174 l 174 174 l 87 174 l 0 174 l 0 260 l 87 260 l 174 260 l 260 260 l 347 260 l 347 347 l 260 347 l 174 347 l 87 347 l 87 434 l 0 434 l 0 521 l 87 521 l 87 608 l 174 608 l 260 608 l 347 608 l 434 608 l 434 521 l 347 521 l 260 521 l 174 521 l 174 434 l 260 434 l 347 434 l 434 434 l 434 347 l 521 347 l 521 260 l 434 260 l 434 174 l 347 174 z "},"t":{"ha":434,"x_min":0,"x_max":347,"o":"m 260 174 l 174 174 l 174 260 l 87 260 l 87 347 l 87 434 l 87 521 l 0 521 l 0 608 l 87 608 l 87 694 l 174 694 l 260 694 l 260 608 l 347 608 l 347 521 l 260 521 l 260 434 l 260 347 l 260 260 l 347 260 l 347 174 l 260 174 z "},"u":{"ha":608,"x_min":0,"x_max":521,"o":"m 347 174 l 260 174 l 174 174 l 87 174 l 87 260 l 0 260 l 0 347 l 0 434 l 0 521 l 0 608 l 87 608 l 174 608 l 174 521 l 174 434 l 174 347 l 174 260 l 260 260 l 347 260 l 347 347 l 347 434 l 347 521 l 347 608 l 434 608 l 521 608 l 521 521 l 521 434 l 521 347 l 521 260 l 434 260 l 434 174 l 347 174 z "},"v":{"ha":608,"x_min":0,"x_max":521,"o":"m 260 174 l 174 174 l 174 260 l 87 260 l 87 347 l 0 347 l 0 434 l 0 521 l 0 608 l 87 608 l 174 608 l 174 521 l 174 434 l 174 347 l 260 347 l 347 347 l 347 434 l 347 521 l 347 608 l 434 608 l 521 608 l 521 521 l 521 434 l 521 347 l 434 347 l 434 260 l 347 260 l 347 174 l 260 174 z "},"w":{"ha":781,"x_min":0,"x_max":694,"o":"m 521 174 l 434 174 l 347 174 l 260 174 l 174 174 l 87 174 l 87 260 l 0 260 l 0 347 l 0 434 l 0 521 l 0 608 l 87 608 l 174 608 l 174 521 l 174 434 l 174 347 l 174 260 l 260 260 l 260 347 l 260 434 l 260 521 l 347 521 l 434 521 l 434 434 l 434 347 l 434 260 l 521 260 l 521 347 l 521 434 l 521 521 l 521 608 l 608 608 l 694 608 l 694 521 l 694 434 l 694 347 l 694 260 l 608 260 l 608 174 l 521 174 z "},"x":{"ha":608,"x_min":0,"x_max":521,"o":"m 434 174 l 347 174 l 347 260 l 260 260 l 174 260 l 174 174 l 87 174 l 0 174 l 0 260 l 87 260 l 87 347 l 174 347 l 174 434 l 87 434 l 87 521 l 0 521 l 0 608 l 87 608 l 174 608 l 174 521 l 260 521 l 347 521 l 347 608 l 434 608 l 521 608 l 521 521 l 434 521 l 434 434 l 347 434 l 347 347 l 434 347 l 434 260 l 521 260 l 521 174 l 434 174 z "},"y":{"ha":608,"x_min":0,"x_max":521,"o":"m 347 87 l 260 87 l 174 87 l 87 87 l 87 174 l 174 174 l 260 174 l 347 174 l 347 260 l 260 260 l 174 260 l 87 260 l 87 347 l 0 347 l 0 434 l 0 521 l 0 608 l 87 608 l 174 608 l 174 521 l 174 434 l 174 347 l 260 347 l 347 347 l 347 434 l 347 521 l 347 608 l 434 608 l 521 608 l 521 521 l 521 434 l 521 347 l 521 260 l 521 174 l 434 174 l 434 87 l 347 87 z "},"z":{"ha":608,"x_min":0,"x_max":521,"o":"m 434 260 l 521 260 l 521 174 l 434 174 l 347 174 l 260 174 l 174 174 l 87 174 l 0 174 l 0 260 l 87 260 l 87 347 l 174 347 l 174 434 l 260 434 l 260 521 l 174 521 l 87 521 l 0 521 l 0 608 l 87 608 l 174 608 l 260 608 l 347 608 l 434 608 l 521 608 l 521 521 l 434 521 l 434 434 l 347 434 l 347 347 l 260 347 l 260 260 l 347 260 l 434 260 z "},"{":{"ha":434,"x_min":0,"x_max":347,"o":"m 260 87 l 174 87 l 174 174 l 87 174 l 87 260 l 87 347 l 0 347 l 0 434 l 0 521 l 87 521 l 87 608 l 87 694 l 174 694 l 174 781 l 260 781 l 347 781 l 347 694 l 260 694 l 260 608 l 260 521 l 174 521 l 174 434 l 174 347 l 260 347 l 260 260 l 260 174 l 347 174 l 347 87 l 260 87 z "},"|":{"ha":260,"x_min":0,"x_max":174,"o":"m 87 87 l 0 87 l 0 174 l 0 260 l 0 347 l 0 434 l 0 521 l 0 608 l 0 694 l 0 781 l 87 781 l 174 781 l 174 694 l 174 608 l 174 521 l 174 434 l 174 347 l 174 260 l 174 174 l 174 87 l 87 87 z "},"}":{"ha":434,"x_min":0,"x_max":347,"o":"m 87 87 l 0 87 l 0 174 l 87 174 l 87 260 l 87 347 l 174 347 l 174 434 l 174 521 l 87 521 l 87 608 l 87 694 l 0 694 l 0 781 l 87 781 l 174 781 l 174 694 l 260 694 l 260 608 l 260 521 l 347 521 l 347 434 l 347 347 l 260 347 l 260 260 l 260 174 l 174 174 l 174 87 l 87 87 z "},"~":{"ha":694,"x_min":0,"x_max":608,"o":"m 434 347 l 347 347 l 260 347 l 260 434 l 174 434 l 174 347 l 87 347 l 0 347 l 0 434 l 87 434 l 87 521 l 174 521 l 260 521 l 347 521 l 347 434 l 434 434 l 434 521 l 521 521 l 608 521 l 608 434 l 521 434 l 521 347 l 434 347 z "}," ":{"ha":434,"x_min":0,"x_max":0,"o":""},"¡":{"ha":608,"x_min":0,"x_max":521,"o":"m 87 87 l 87 174 l 0 174 l 0 260 l 0 347 l 0 434 l 0 521 l 0 608 l 87 608 l 174 608 l 174 521 l 174 434 l 174 347 l 260 347 l 347 347 l 347 434 l 347 521 l 347 608 l 434 608 l 521 608 l 521 521 l 521 434 l 521 347 l 434 347 l 434 260 l 347 260 l 260 260 l 174 260 l 174 174 l 174 87 l 87 87 z "},"¢":{"ha":781,"x_min":0,"x_max":694,"o":"m 608 174 l 521 174 l 434 174 l 434 260 l 434 347 l 434 434 l 434 521 l 521 521 l 521 608 l 521 694 l 434 694 l 434 781 l 347 781 l 260 781 l 260 694 l 174 694 l 174 608 l 174 521 l 260 521 l 260 434 l 260 347 l 260 260 l 260 174 l 174 174 l 87 174 l 0 174 l 0 260 l 87 260 l 87 347 l 87 434 l 0 434 l 0 521 l 0 608 l 0 694 l 0 781 l 87 781 l 87 868 l 174 868 l 260 868 l 347 868 l 434 868 l 521 868 l 608 868 l 608 781 l 694 781 l 694 694 l 694 608 l 694 521 l 694 434 l 608 434 l 608 347 l 608 260 l 694 260 l 694 174 l 608 174 z "},"£":{"ha":781,"x_min":0,"x_max":694,"o":"m 608 521 l 694 521 l 694 434 l 608 434 l 521 434 l 434 434 l 347 434 l 260 434 l 174 434 l 87 434 l 0 434 l 0 521 l 87 521 l 174 521 l 260 521 l 347 521 l 434 521 l 521 521 l 608 521 z "},"¤":{"ha":781,"x_min":0,"x_max":694,"o":"m 608 781 l 694 781 l 694 694 l 608 694 l 521 694 l 434 694 l 347 694 l 260 694 l 174 694 l 87 694 l 0 694 l 0 781 l 87 781 l 174 781 l 260 781 l 347 781 l 434 781 l 521 781 l 608 781 z "},"¥":{"ha":781,"x_min":0,"x_max":694,"o":"m 608 0 l 521 0 l 434 0 l 347 0 l 260 0 l 174 0 l 87 0 l 0 0 l 0 87 l 0 174 l 0 260 l 0 347 l 0 434 l 0 521 l 0 608 l 0 694 l 0 781 l 87 781 l 174 781 l 260 781 l 347 781 l 434 781 l 521 781 l 608 781 l 694 781 l 694 694 l 694 608 l 694 521 l 694 434 l 694 347 l 694 260 l 694 174 l 694 87 l 694 0 l 608 0 m 434 87 l 521 87 l 521 174 l 521 260 l 521 347 l 521 434 l 521 521 l 521 608 l 521 694 l 434 694 l 347 694 l 260 694 l 174 694 l 174 608 l 174 521 l 174 434 l 174 347 l 174 260 l 174 174 l 174 87 l 260 87 l 347 87 l 434 87 z "},"¦":{"ha":260,"x_min":0,"x_max":174,"o":"m 87 87 l 0 87 l 0 174 l 0 260 l 0 347 l 87 347 l 174 347 l 174 260 l 174 174 l 174 87 l 87 87 m 87 521 l 0 521 l 0 608 l 0 694 l 0 781 l 87 781 l 174 781 l 174 694 l 174 608 l 174 521 l 87 521 z "},"§":{"ha":608,"x_min":0,"x_max":521,"o":"m 347 87 l 260 87 l 174 87 l 87 87 l 0 87 l 0 174 l 87 174 l 174 174 l 260 174 l 347 174 l 347 260 l 260 260 l 174 260 l 87 260 l 87 347 l 0 347 l 0 434 l 0 521 l 87 521 l 87 608 l 0 608 l 0 694 l 87 694 l 87 781 l 174 781 l 260 781 l 347 781 l 434 781 l 521 781 l 521 694 l 434 694 l 347 694 l 260 694 l 174 694 l 174 608 l 260 608 l 347 608 l 434 608 l 434 521 l 521 521 l 521 434 l 521 347 l 434 347 l 434 260 l 521 260 l 521 174 l 434 174 l 434 87 l 347 87 m 260 347 l 347 347 l 347 434 l 347 521 l 260 521 l 174 521 l 174 434 l 174 347 l 260 347 z "},"¨":{"ha":521,"x_min":0,"x_max":434,"o":"m 347 521 l 260 521 l 260 608 l 260 694 l 347 694 l 434 694 l 434 608 l 434 521 l 347 521 m 87 521 l 0 521 l 0 608 l 0 694 l 87 694 l 174 694 l 174 608 l 174 521 l 87 521 z "},"©":{"ha":781,"x_min":0,"x_max":694,"o":"m 521 87 l 434 87 l 347 87 l 260 87 l 174 87 l 87 87 l 87 174 l 0 174 l 0 260 l 0 347 l 0 434 l 0 521 l 0 608 l 0 694 l 87 694 l 87 781 l 174 781 l 260 781 l 347 781 l 434 781 l 521 781 l 608 781 l 608 694 l 694 694 l 694 608 l 694 521 l 694 434 l 694 347 l 694 260 l 694 174 l 608 174 l 608 87 l 521 87 m 434 174 l 521 174 l 521 260 l 521 347 l 521 434 l 521 521 l 521 608 l 521 694 l 434 694 l 347 694 l 260 694 l 174 694 l 174 608 l 174 521 l 174 434 l 174 347 l 174 260 l 174 174 l 260 174 l 347 174 l 434 174 m 347 260 l 260 260 l 260 347 l 260 434 l 260 521 l 260 608 l 347 608 l 434 608 l 434 521 l 347 521 l 347 434 l 347 347 l 434 347 l 434 260 l 347 260 z "},"ª":{"ha":521,"x_min":0,"x_max":434,"o":"m 347 347 l 260 347 l 174 347 l 87 347 l 87 434 l 0 434 l 0 521 l 87 521 l 87 608 l 174 608 l 260 608 l 260 694 l 174 694 l 87 694 l 87 781 l 174 781 l 260 781 l 347 781 l 347 694 l 434 694 l 434 608 l 434 521 l 434 434 l 434 347 l 347 347 m 260 434 l 260 521 l 174 521 l 174 434 l 260 434 z "},"«":{"ha":781,"x_min":0,"x_max":694,"o":"m 608 174 l 521 174 l 521 260 l 434 260 l 434 347 l 347 347 l 347 434 l 347 521 l 434 521 l 434 608 l 521 608 l 521 694 l 608 694 l 694 694 l 694 608 l 608 608 l 608 521 l 521 521 l 521 434 l 521 347 l 608 347 l 608 260 l 694 260 l 694 174 l 608 174 m 260 174 l 174 174 l 174 260 l 87 260 l 87 347 l 0 347 l 0 434 l 0 521 l 87 521 l 87 608 l 174 608 l 174 694 l 260 694 l 347 694 l 347 608 l 260 608 l 260 521 l 174 521 l 174 434 l 174 347 l 260 347 l 260 260 l 347 260 l 347 174 l 260 174 z "},"¬":{"ha":608,"x_min":0,"x_max":521,"o":"m 434 260 l 347 260 l 347 347 l 347 434 l 260 434 l 174 434 l 87 434 l 0 434 l 0 521 l 87 521 l 174 521 l 260 521 l 347 521 l 434 521 l 521 521 l 521 434 l 521 347 l 521 260 l 434 260 z "},"®":{"ha":781,"x_min":0,"x_max":694,"o":"m 521 87 l 434 87 l 347 87 l 260 87 l 174 87 l 87 87 l 87 174 l 0 174 l 0 260 l 0 347 l 0 434 l 0 521 l 0 608 l 0 694 l 87 694 l 87 781 l 174 781 l 260 781 l 347 781 l 434 781 l 521 781 l 608 781 l 608 694 l 694 694 l 694 608 l 694 521 l 694 434 l 694 347 l 694 260 l 694 174 l 608 174 l 608 87 l 521 87 m 434 174 l 521 174 l 521 260 l 434 260 l 347 260 l 347 347 l 260 347 l 260 260 l 174 260 l 174 174 l 260 174 l 347 174 l 434 174 m 521 347 l 521 434 l 434 434 l 434 521 l 347 521 l 260 521 l 260 434 l 347 434 l 434 434 l 434 347 l 521 347 m 434 608 l 521 608 l 521 694 l 434 694 l 347 694 l 260 694 l 174 694 l 174 608 l 260 608 l 347 608 l 434 608 z "},"¯":{"ha":608,"x_min":0,"x_max":521,"o":"m 434 781 l 521 781 l 521 694 l 434 694 l 347 694 l 260 694 l 174 694 l 87 694 l 0 694 l 0 781 l 87 781 l 174 781 l 260 781 l 347 781 l 434 781 z "},"°":{"ha":521,"x_min":0,"x_max":434,"o":"m 260 434 l 174 434 l 87 434 l 87 521 l 0 521 l 0 608 l 0 694 l 87 694 l 87 781 l 174 781 l 260 781 l 347 781 l 347 694 l 434 694 l 434 608 l 434 521 l 347 521 l 347 434 l 260 434 m 260 521 l 260 608 l 260 694 l 174 694 l 174 608 l 174 521 l 260 521 z "},"±":{"ha":608,"x_min":0,"x_max":521,"o":"m 434 260 l 521 260 l 521 174 l 434 174 l 347 174 l 260 174 l 174 174 l 87 174 l 0 174 l 0 260 l 87 260 l 174 260 l 260 260 l 347 260 l 434 260 m 260 347 l 174 347 l 174 434 l 174 521 l 87 521 l 0 521 l 0 608 l 87 608 l 174 608 l 174 694 l 174 781 l 260 781 l 347 781 l 347 694 l 347 608 l 434 608 l 521 608 l 521 521 l 434 521 l 347 521 l 347 434 l 347 347 l 260 347 z "},"²":{"ha":521,"x_min":0,"x_max":434,"o":"m 347 434 l 434 434 l 434 347 l 347 347 l 260 347 l 174 347 l 87 347 l 0 347 l 0 434 l 0 521 l 87 521 l 87 608 l 174 608 l 260 608 l 260 694 l 174 694 l 87 694 l 0 694 l 0 781 l 87 781 l 174 781 l 260 781 l 347 781 l 347 694 l 434 694 l 434 608 l 347 608 l 347 521 l 260 521 l 174 521 l 174 434 l 260 434 l 347 434 z "},"³":{"ha":521,"x_min":0,"x_max":434,"o":"m 260 347 l 174 347 l 87 347 l 0 347 l 0 434 l 87 434 l 174 434 l 260 434 l 260 521 l 174 521 l 87 521 l 87 608 l 174 608 l 260 608 l 260 694 l 174 694 l 87 694 l 0 694 l 0 781 l 87 781 l 174 781 l 260 781 l 347 781 l 347 694 l 434 694 l 434 608 l 347 608 l 347 521 l 434 521 l 434 434 l 347 434 l 347 347 l 260 347 z "},"´":{"ha":260,"x_min":0,"x_max":174,"o":"m 87 521 l 87 608 l 0 608 l 0 694 l 0 781 l 87 781 l 174 781 l 174 694 l 174 608 l 174 521 l 87 521 z "},"µ":{"ha":608,"x_min":0,"x_max":521,"o":"m 87 87 l 87 174 l 0 174 l 0 260 l 0 347 l 0 434 l 0 521 l 0 608 l 87 608 l 174 608 l 174 521 l 174 434 l 174 347 l 260 347 l 347 347 l 347 434 l 347 521 l 347 608 l 434 608 l 521 608 l 521 521 l 521 434 l 521 347 l 434 347 l 434 260 l 347 260 l 260 260 l 174 260 l 174 174 l 174 87 l 87 87 z "},"¶":{"ha":694,"x_min":0,"x_max":608,"o":"m 434 87 l 347 87 l 347 174 l 347 260 l 347 347 l 347 434 l 347 521 l 347 608 l 347 694 l 260 694 l 260 608 l 260 521 l 260 434 l 260 347 l 260 260 l 260 174 l 260 87 l 174 87 l 87 87 l 87 174 l 87 260 l 87 347 l 87 434 l 0 434 l 0 521 l 0 608 l 0 694 l 87 694 l 87 781 l 174 781 l 260 781 l 347 781 l 434 781 l 521 781 l 608 781 l 608 694 l 521 694 l 521 608 l 521 521 l 521 434 l 521 347 l 521 260 l 521 174 l 521 87 l 434 87 z "},"·":{"ha":260,"x_min":0,"x_max":174,"o":"m 87 347 l 0 347 l 0 434 l 0 521 l 87 521 l 174 521 l 174 434 l 174 347 l 87 347 z "},"¸":{"ha":347,"x_min":0,"x_max":260,"o":"m 87 87 l 0 87 l 0 174 l 87 174 l 87 260 l 0 260 l 0 347 l 0 434 l 87 434 l 174 434 l 174 347 l 260 347 l 260 260 l 260 174 l 174 174 l 174 87 l 87 87 z "},"¹":{"ha":347,"x_min":0,"x_max":260,"o":"m 174 347 l 87 347 l 87 434 l 87 521 l 87 608 l 0 608 l 0 694 l 87 694 l 87 781 l 174 781 l 260 781 l 260 694 l 260 608 l 260 521 l 260 434 l 260 347 l 174 347 z "},"º":{"ha":521,"x_min":0,"x_max":434,"o":"m 260 434 l 174 434 l 87 434 l 87 521 l 0 521 l 0 608 l 0 694 l 87 694 l 87 781 l 174 781 l 260 781 l 347 781 l 347 694 l 434 694 l 434 608 l 434 521 l 347 521 l 347 434 l 260 434 m 260 521 l 260 608 l 260 694 l 174 694 l 174 608 l 174 521 l 260 521 z "},"»":{"ha":781,"x_min":0,"x_max":694,"o":"m 434 174 l 347 174 l 347 260 l 434 260 l 434 347 l 521 347 l 521 434 l 521 521 l 434 521 l 434 608 l 347 608 l 347 694 l 434 694 l 521 694 l 521 608 l 608 608 l 608 521 l 694 521 l 694 434 l 694 347 l 608 347 l 608 260 l 521 260 l 521 174 l 434 174 m 87 174 l 0 174 l 0 260 l 87 260 l 87 347 l 174 347 l 174 434 l 174 521 l 87 521 l 87 608 l 0 608 l 0 694 l 87 694 l 174 694 l 174 608 l 260 608 l 260 521 l 347 521 l 347 434 l 347 347 l 260 347 l 260 260 l 174 260 l 174 174 l 87 174 z "},"¼":{"ha":955,"x_min":0,"x_max":868,"o":"m 694 87 l 694 174 l 608 174 l 521 174 l 521 260 l 521 347 l 608 347 l 608 434 l 694 434 l 694 521 l 781 521 l 781 434 l 781 347 l 781 260 l 868 260 l 868 174 l 781 174 l 781 87 l 694 87 m 87 434 l 87 521 l 87 608 l 87 694 l 0 694 l 0 781 l 87 781 l 87 868 l 174 868 l 174 781 l 174 694 l 174 608 l 174 521 l 174 434 l 87 434 m 87 87 l 0 87 l 0 174 l 87 174 l 87 260 l 174 260 l 174 347 l 260 347 l 260 434 l 347 434 l 347 521 l 434 521 l 434 608 l 521 608 l 521 694 l 608 694 l 608 781 l 694 781 l 694 868 l 781 868 l 868 868 l 868 781 l 781 781 l 781 694 l 694 694 l 694 608 l 608 608 l 608 521 l 521 521 l 521 434 l 434 434 l 434 347 l 347 347 l 347 260 l 260 260 l 260 174 l 174 174 l 174 87 l 87 87 m 694 260 l 694 347 l 608 347 l 608 260 l 694 260 z "},"½":{"ha":955,"x_min":0,"x_max":868,"o":"m 521 347 l 521 434 l 608 434 l 608 347 l 521 347 m 87 434 l 87 521 l 87 608 l 87 694 l 0 694 l 0 781 l 87 781 l 87 868 l 174 868 l 174 781 l 174 694 l 174 608 l 174 521 l 174 434 l 87 434 m 781 174 l 868 174 l 868 87 l 781 87 l 694 87 l 608 87 l 521 87 l 521 174 l 608 174 l 608 260 l 694 260 l 694 174 l 781 174 m 87 87 l 0 87 l 0 174 l 87 174 l 87 260 l 174 260 l 174 347 l 260 347 l 260 434 l 347 434 l 347 521 l 434 521 l 434 608 l 521 608 l 521 694 l 608 694 l 608 781 l 694 781 l 694 868 l 781 868 l 868 868 l 868 781 l 781 781 l 781 694 l 694 694 l 694 608 l 608 608 l 608 521 l 694 521 l 781 521 l 781 434 l 868 434 l 868 347 l 781 347 l 781 260 l 694 260 l 694 347 l 781 347 l 781 434 l 694 434 l 608 434 l 608 521 l 521 521 l 521 434 l 434 434 l 434 347 l 347 347 l 347 260 l 260 260 l 260 174 l 174 174 l 174 87 l 87 87 z "},"¾":{"ha":955,"x_min":0,"x_max":868,"o":"m 694 87 l 694 174 l 608 174 l 521 174 l 521 260 l 521 347 l 608 347 l 608 434 l 694 434 l 694 521 l 781 521 l 781 434 l 781 347 l 781 260 l 868 260 l 868 174 l 781 174 l 781 87 l 694 87 m 0 694 l 0 781 l 87 781 l 87 694 l 0 694 m 87 87 l 0 87 l 0 174 l 87 174 l 87 260 l 174 260 l 174 347 l 260 347 l 260 434 l 347 434 l 347 521 l 434 521 l 434 608 l 521 608 l 521 694 l 608 694 l 608 781 l 694 781 l 694 868 l 781 868 l 868 868 l 868 781 l 781 781 l 781 694 l 694 694 l 694 608 l 608 608 l 608 521 l 521 521 l 521 434 l 434 434 l 434 347 l 347 347 l 347 260 l 260 260 l 260 174 l 174 174 l 174 87 l 87 87 m 694 260 l 694 347 l 608 347 l 608 260 l 694 260 m 260 434 l 174 434 l 87 434 l 87 521 l 174 521 l 260 521 l 260 434 m 347 521 l 260 521 l 260 608 l 347 608 l 347 521 m 87 521 l 0 521 l 0 608 l 87 608 l 87 521 m 260 608 l 174 608 l 174 694 l 260 694 l 260 608 m 260 694 l 260 781 l 347 781 l 347 694 l 260 694 m 260 781 l 174 781 l 87 781 l 87 868 l 174 868 l 260 868 l 260 781 z "},"¿":{"ha":608,"x_min":0,"x_max":521,"o":"m 347 174 l 260 174 l 174 174 l 87 174 l 87 260 l 0 260 l 0 347 l 87 347 l 87 434 l 174 434 l 174 521 l 260 521 l 347 521 l 347 434 l 260 434 l 260 347 l 174 347 l 174 260 l 260 260 l 347 260 l 347 347 l 434 347 l 521 347 l 521 260 l 434 260 l 434 174 l 347 174 m 260 694 l 347 694 l 347 608 l 260 608 l 174 608 l 174 694 l 260 694 z "},"Á":{"ha":608,"x_min":0,"x_max":521,"o":"m 434 174 l 347 174 l 347 260 l 347 347 l 260 347 l 174 347 l 174 260 l 174 174 l 87 174 l 0 174 l 0 260 l 0 347 l 0 434 l 0 521 l 0 608 l 87 608 l 87 694 l 174 694 l 174 781 l 260 781 l 260 868 l 347 868 l 434 868 l 434 781 l 347 781 l 347 694 l 434 694 l 434 608 l 521 608 l 521 521 l 521 434 l 521 347 l 521 260 l 521 174 l 434 174 m 260 434 l 347 434 l 347 521 l 347 608 l 260 608 l 174 608 l 174 521 l 174 434 l 260 434 z "},"Å":{"ha":608,"x_min":0,"x_max":521,"o":"m 434 174 l 347 174 l 347 260 l 347 347 l 260 347 l 174 347 l 174 260 l 174 174 l 87 174 l 0 174 l 0 260 l 0 347 l 0 434 l 0 521 l 0 608 l 87 608 l 87 694 l 174 694 l 174 781 l 260 781 l 347 781 l 347 694 l 434 694 l 434 608 l 521 608 l 521 521 l 521 434 l 521 347 l 521 260 l 521 174 l 434 174 m 260 434 l 347 434 l 347 521 l 347 608 l 260 608 l 174 608 l 174 521 l 174 434 l 260 434 m 347 781 l 347 868 l 434 868 l 434 781 l 347 781 m 174 781 l 87 781 l 87 868 l 174 868 l 174 781 m 347 868 l 260 868 l 174 868 l 174 955 l 260 955 l 347 955 l 347 868 z "},"É":{"ha":608,"x_min":0,"x_max":521,"o":"m 434 260 l 521 260 l 521 174 l 434 174 l 347 174 l 260 174 l 174 174 l 87 174 l 0 174 l 0 260 l 0 347 l 0 434 l 0 521 l 0 608 l 0 694 l 87 694 l 174 694 l 174 781 l 260 781 l 260 868 l 347 868 l 434 868 l 434 781 l 347 781 l 347 694 l 434 694 l 521 694 l 521 608 l 434 608 l 347 608 l 260 608 l 174 608 l 174 521 l 260 521 l 347 521 l 347 434 l 260 434 l 174 434 l 174 347 l 174 260 l 260 260 l 347 260 l 434 260 z "},"Í":{"ha":434,"x_min":0,"x_max":347,"o":"m 260 174 l 174 174 l 87 174 l 0 174 l 0 260 l 87 260 l 87 347 l 87 434 l 87 521 l 87 608 l 0 608 l 0 694 l 87 694 l 87 781 l 174 781 l 174 868 l 260 868 l 347 868 l 347 781 l 260 781 l 260 694 l 347 694 l 347 608 l 260 608 l 260 521 l 260 434 l 260 347 l 260 260 l 347 260 l 347 174 l 260 174 z "},"Ó":{"ha":608,"x_min":0,"x_max":521,"o":"m 347 174 l 260 174 l 174 174 l 87 174 l 87 260 l 0 260 l 0 347 l 0 434 l 0 521 l 0 608 l 87 608 l 87 694 l 174 694 l 174 781 l 260 781 l 260 868 l 347 868 l 434 868 l 434 781 l 347 781 l 347 694 l 434 694 l 434 608 l 521 608 l 521 521 l 521 434 l 521 347 l 521 260 l 434 260 l 434 174 l 347 174 m 260 260 l 347 260 l 347 347 l 347 434 l 347 521 l 347 608 l 260 608 l 174 608 l 174 521 l 174 434 l 174 347 l 174 260 l 260 260 z "},"Ø":{"ha":608,"x_min":0,"x_max":521,"o":"m 347 174 l 260 174 l 174 174 l 87 174 l 0 174 l 0 260 l 0 347 l 0 434 l 0 521 l 0 608 l 87 608 l 87 694 l 174 694 l 260 694 l 347 694 l 434 694 l 521 694 l 521 608 l 521 521 l 521 434 l 521 347 l 521 260 l 434 260 l 434 174 l 347 174 m 260 260 l 347 260 l 347 347 l 347 434 l 260 434 l 260 521 l 347 521 l 347 608 l 260 608 l 174 608 l 174 521 l 174 434 l 260 434 l 260 347 l 174 347 l 174 260 l 260 260 z "},"Ú":{"ha":608,"x_min":0,"x_max":521,"o":"m 347 174 l 260 174 l 174 174 l 87 174 l 87 260 l 0 260 l 0 347 l 0 434 l 0 521 l 0 608 l 0 694 l 87 694 l 174 694 l 174 608 l 174 521 l 174 434 l 174 347 l 174 260 l 260 260 l 347 260 l 347 347 l 347 434 l 347 521 l 347 608 l 347 694 l 434 694 l 521 694 l 521 608 l 521 521 l 521 434 l 521 347 l 521 260 l 434 260 l 434 174 l 347 174 m 347 694 l 260 694 l 174 694 l 174 781 l 260 781 l 260 868 l 347 868 l 434 868 l 434 781 l 347 781 l 347 694 z "},"ß":{"ha":608,"x_min":0,"x_max":521,"o":"m 347 174 l 260 174 l 260 260 l 347 260 l 347 347 l 347 434 l 347 521 l 260 521 l 260 608 l 347 608 l 347 694 l 347 781 l 260 781 l 174 781 l 174 694 l 174 608 l 174 521 l 174 434 l 174 347 l 174 260 l 174 174 l 87 174 l 0 174 l 0 260 l 0 347 l 0 434 l 0 521 l 0 608 l 0 694 l 0 781 l 87 781 l 87 868 l 174 868 l 260 868 l 347 868 l 434 868 l 434 781 l 521 781 l 521 694 l 521 608 l 434 608 l 434 521 l 521 521 l 521 434 l 521 347 l 521 260 l 434 260 l 434 174 l 347 174 z "},"á":{"ha":608,"x_min":0,"x_max":521,"o":"m 434 174 l 347 174 l 260 174 l 174 174 l 87 174 l 87 260 l 0 260 l 0 347 l 87 347 l 87 434 l 174 434 l 260 434 l 347 434 l 347 521 l 260 521 l 174 521 l 87 521 l 87 608 l 174 608 l 174 694 l 260 694 l 260 781 l 347 781 l 434 781 l 434 694 l 347 694 l 347 608 l 434 608 l 434 521 l 521 521 l 521 434 l 521 347 l 521 260 l 521 174 l 434 174 m 260 260 l 347 260 l 347 347 l 260 347 l 174 347 l 174 260 l 260 260 z "},"é":{"ha":608,"x_min":0,"x_max":521,"o":"m 347 260 l 434 260 l 434 174 l 347 174 l 260 174 l 174 174 l 87 174 l 87 260 l 0 260 l 0 347 l 0 434 l 0 521 l 87 521 l 87 608 l 174 608 l 174 694 l 260 694 l 260 781 l 347 781 l 434 781 l 434 694 l 347 694 l 347 608 l 434 608 l 434 521 l 521 521 l 521 434 l 434 434 l 434 347 l 347 347 l 260 347 l 174 347 l 174 260 l 260 260 l 347 260 m 260 434 l 347 434 l 347 521 l 260 521 l 174 521 l 174 434 l 260 434 z "},"í":{"ha":347,"x_min":0,"x_max":260,"o":"m 87 174 l 0 174 l 0 260 l 0 347 l 0 434 l 0 521 l 87 521 l 174 521 l 174 434 l 174 347 l 174 260 l 174 174 l 87 174 m 87 608 l 0 608 l 0 694 l 87 694 l 87 781 l 174 781 l 260 781 l 260 694 l 174 694 l 174 608 l 87 608 z "},"ó":{"ha":608,"x_min":0,"x_max":521,"o":"m 347 174 l 260 174 l 174 174 l 87 174 l 87 260 l 0 260 l 0 347 l 0 434 l 0 521 l 87 521 l 87 608 l 174 608 l 174 694 l 260 694 l 260 781 l 347 781 l 434 781 l 434 694 l 347 694 l 347 608 l 434 608 l 434 521 l 521 521 l 521 434 l 521 347 l 521 260 l 434 260 l 434 174 l 347 174 m 260 260 l 347 260 l 347 347 l 347 434 l 347 521 l 260 521 l 174 521 l 174 434 l 174 347 l 174 260 l 260 260 z "},"÷":{"ha":608,"x_min":0,"x_max":521,"o":"m 260 174 l 174 174 l 174 260 l 174 347 l 260 347 l 347 347 l 347 260 l 347 174 l 260 174 m 434 521 l 521 521 l 521 434 l 434 434 l 347 434 l 260 434 l 174 434 l 87 434 l 0 434 l 0 521 l 87 521 l 174 521 l 260 521 l 347 521 l 434 521 m 260 608 l 174 608 l 174 694 l 174 781 l 260 781 l 347 781 l 347 694 l 347 608 l 260 608 z "},"ø":{"ha":608,"x_min":0,"x_max":521,"o":"m 347 174 l 260 174 l 174 174 l 87 174 l 0 174 l 0 260 l 0 347 l 0 434 l 0 521 l 87 521 l 87 608 l 174 608 l 260 608 l 347 608 l 434 608 l 521 608 l 521 521 l 521 434 l 521 347 l 521 260 l 434 260 l 434 174 l 347 174 m 347 260 l 347 347 l 260 347 l 260 260 l 347 260 m 260 434 l 260 521 l 174 521 l 174 434 l 260 434 z "},"ú":{"ha":608,"x_min":0,"x_max":521,"o":"m 347 174 l 260 174 l 174 174 l 87 174 l 87 260 l 0 260 l 0 347 l 0 434 l 0 521 l 0 608 l 87 608 l 174 608 l 174 521 l 174 434 l 174 347 l 174 260 l 260 260 l 347 260 l 347 347 l 347 434 l 347 521 l 347 608 l 434 608 l 521 608 l 521 521 l 521 434 l 521 347 l 521 260 l 434 260 l 434 174 l 347 174 m 347 608 l 260 608 l 174 608 l 174 694 l 260 694 l 260 781 l 347 781 l 434 781 l 434 694 l 347 694 l 347 608 z "},"Ą":{"ha":608,"x_min":0,"x_max":521,"o":"m 434 0 l 347 0 l 347 87 l 260 87 l 260 174 l 347 174 l 347 260 l 347 347 l 260 347 l 174 347 l 174 260 l 174 174 l 87 174 l 0 174 l 0 260 l 0 347 l 0 434 l 0 521 l 0 608 l 87 608 l 87 694 l 174 694 l 260 694 l 347 694 l 434 694 l 434 608 l 521 608 l 521 521 l 521 434 l 521 347 l 521 260 l 521 174 l 434 174 l 434 87 l 521 87 l 521 0 l 434 0 m 260 434 l 347 434 l 347 521 l 347 608 l 260 608 l 174 608 l 174 521 l 174 434 l 260 434 z "},"ą":{"ha":608,"x_min":0,"x_max":521,"o":"m 434 0 l 347 0 l 347 87 l 260 87 l 260 174 l 174 174 l 87 174 l 87 260 l 0 260 l 0 347 l 87 347 l 87 434 l 174 434 l 260 434 l 347 434 l 347 521 l 260 521 l 174 521 l 87 521 l 87 608 l 174 608 l 260 608 l 347 608 l 434 608 l 434 521 l 521 521 l 521 434 l 521 347 l 521 260 l 521 174 l 434 174 l 434 87 l 521 87 l 521 0 l 434 0 m 260 260 l 347 260 l 347 347 l 260 347 l 174 347 l 174 260 l 260 260 z "},"Ć":{"ha":608,"x_min":0,"x_max":521,"o":"m 347 174 l 260 174 l 174 174 l 87 174 l 87 260 l 0 260 l 0 347 l 0 434 l 0 521 l 0 608 l 87 608 l 87 694 l 174 694 l 174 781 l 260 781 l 260 868 l 347 868 l 434 868 l 434 781 l 347 781 l 347 694 l 434 694 l 434 608 l 521 608 l 521 521 l 434 521 l 347 521 l 347 608 l 260 608 l 174 608 l 174 521 l 174 434 l 174 347 l 174 260 l 260 260 l 347 260 l 347 347 l 434 347 l 521 347 l 521 260 l 434 260 l 434 174 l 347 174 z "},"ć":{"ha":608,"x_min":0,"x_max":521,"o":"m 347 174 l 260 174 l 174 174 l 87 174 l 87 260 l 0 260 l 0 347 l 0 434 l 0 521 l 87 521 l 87 608 l 174 608 l 174 694 l 260 694 l 260 781 l 347 781 l 434 781 l 434 694 l 347 694 l 347 608 l 434 608 l 434 521 l 521 521 l 521 434 l 434 434 l 347 434 l 347 521 l 260 521 l 174 521 l 174 434 l 174 347 l 174 260 l 260 260 l 347 260 l 347 347 l 434 347 l 521 347 l 521 260 l 434 260 l 434 174 l 347 174 z "},"Č":{"ha":608,"x_min":0,"x_max":521,"o":"m 347 174 l 260 174 l 174 174 l 87 174 l 87 260 l 0 260 l 0 347 l 0 434 l 0 521 l 0 608 l 87 608 l 87 694 l 87 781 l 0 781 l 0 868 l 87 868 l 174 868 l 174 781 l 260 781 l 347 781 l 347 868 l 434 868 l 521 868 l 521 781 l 434 781 l 434 694 l 434 608 l 521 608 l 521 521 l 434 521 l 347 521 l 347 608 l 260 608 l 174 608 l 174 521 l 174 434 l 174 347 l 174 260 l 260 260 l 347 260 l 347 347 l 434 347 l 521 347 l 521 260 l 434 260 l 434 174 l 347 174 z "},"č":{"ha":608,"x_min":0,"x_max":521,"o":"m 347 174 l 260 174 l 174 174 l 87 174 l 87 260 l 0 260 l 0 347 l 0 434 l 0 521 l 87 521 l 87 608 l 87 694 l 0 694 l 0 781 l 87 781 l 174 781 l 174 694 l 260 694 l 347 694 l 347 781 l 434 781 l 521 781 l 521 694 l 434 694 l 434 608 l 434 521 l 521 521 l 521 434 l 434 434 l 347 434 l 347 521 l 260 521 l 174 521 l 174 434 l 174 347 l 174 260 l 260 260 l 347 260 l 347 347 l 434 347 l 521 347 l 521 260 l 434 260 l 434 174 l 347 174 z "},"Ď":{"ha":608,"x_min":0,"x_max":521,"o":"m 347 174 l 260 174 l 174 174 l 87 174 l 0 174 l 0 260 l 0 347 l 0 434 l 0 521 l 0 608 l 0 694 l 87 694 l 87 781 l 0 781 l 0 868 l 87 868 l 174 868 l 174 781 l 260 781 l 347 781 l 347 868 l 434 868 l 521 868 l 521 781 l 434 781 l 434 694 l 434 608 l 521 608 l 521 521 l 521 434 l 521 347 l 521 260 l 434 260 l 434 174 l 347 174 m 260 260 l 347 260 l 347 347 l 347 434 l 347 521 l 347 608 l 260 608 l 174 608 l 174 521 l 174 434 l 174 347 l 174 260 l 260 260 z "},"ď":{"ha":868,"x_min":0,"x_max":781,"o":"m 694 434 l 694 521 l 608 521 l 608 608 l 608 694 l 694 694 l 781 694 l 781 608 l 781 521 l 781 434 l 694 434 m 434 174 l 347 174 l 260 174 l 174 174 l 87 174 l 87 260 l 0 260 l 0 347 l 0 434 l 0 521 l 87 521 l 87 608 l 174 608 l 260 608 l 347 608 l 347 694 l 434 694 l 521 694 l 521 608 l 521 521 l 521 434 l 521 347 l 521 260 l 521 174 l 434 174 m 260 260 l 347 260 l 347 347 l 347 434 l 347 521 l 260 521 l 174 521 l 174 434 l 174 347 l 174 260 l 260 260 z "},"Ę":{"ha":608,"x_min":0,"x_max":521,"o":"m 434 0 l 347 0 l 347 87 l 260 87 l 260 174 l 174 174 l 87 174 l 0 174 l 0 260 l 0 347 l 0 434 l 0 521 l 0 608 l 0 694 l 87 694 l 174 694 l 260 694 l 347 694 l 434 694 l 521 694 l 521 608 l 434 608 l 347 608 l 260 608 l 174 608 l 174 521 l 260 521 l 347 521 l 347 434 l 260 434 l 174 434 l 174 347 l 174 260 l 260 260 l 347 260 l 434 260 l 521 260 l 521 174 l 434 174 l 434 87 l 521 87 l 521 0 l 434 0 z "},"ę":{"ha":608,"x_min":0,"x_max":521,"o":"m 434 0 l 347 0 l 347 87 l 260 87 l 260 174 l 174 174 l 87 174 l 87 260 l 0 260 l 0 347 l 0 434 l 0 521 l 87 521 l 87 608 l 174 608 l 260 608 l 347 608 l 434 608 l 434 521 l 521 521 l 521 434 l 434 434 l 434 347 l 347 347 l 260 347 l 174 347 l 174 260 l 260 260 l 347 260 l 434 260 l 434 174 l 434 87 l 521 87 l 521 0 l 434 0 m 260 434 l 347 434 l 347 521 l 260 521 l 174 521 l 174 434 l 260 434 z "},"Ě":{"ha":608,"x_min":0,"x_max":521,"o":"m 434 260 l 521 260 l 521 174 l 434 174 l 347 174 l 260 174 l 174 174 l 87 174 l 0 174 l 0 260 l 0 347 l 0 434 l 0 521 l 0 608 l 0 694 l 87 694 l 87 781 l 0 781 l 0 868 l 87 868 l 174 868 l 174 781 l 260 781 l 347 781 l 347 868 l 434 868 l 521 868 l 521 781 l 434 781 l 434 694 l 521 694 l 521 608 l 434 608 l 347 608 l 260 608 l 174 608 l 174 521 l 260 521 l 347 521 l 347 434 l 260 434 l 174 434 l 174 347 l 174 260 l 260 260 l 347 260 l 434 260 z "},"ě":{"ha":608,"x_min":0,"x_max":521,"o":"m 347 260 l 434 260 l 434 174 l 347 174 l 260 174 l 174 174 l 87 174 l 87 260 l 0 260 l 0 347 l 0 434 l 0 521 l 87 521 l 87 608 l 87 694 l 0 694 l 0 781 l 87 781 l 174 781 l 174 694 l 260 694 l 347 694 l 347 781 l 434 781 l 521 781 l 521 694 l 434 694 l 434 608 l 434 521 l 521 521 l 521 434 l 434 434 l 434 347 l 347 347 l 260 347 l 174 347 l 174 260 l 260 260 l 347 260 m 260 434 l 347 434 l 347 521 l 260 521 l 174 521 l 174 434 l 260 434 z "},"Ł":{"ha":608,"x_min":0,"x_max":521,"o":"m 434 260 l 521 260 l 521 174 l 434 174 l 347 174 l 260 174 l 174 174 l 87 174 l 0 174 l 0 260 l 0 347 l 0 434 l 0 521 l 0 608 l 0 694 l 87 694 l 174 694 l 174 608 l 174 521 l 260 521 l 347 521 l 347 434 l 260 434 l 260 347 l 174 347 l 174 260 l 260 260 l 347 260 l 434 260 z "},"ł":{"ha":434,"x_min":0,"x_max":347,"o":"m 260 174 l 174 174 l 174 260 l 87 260 l 87 347 l 0 347 l 0 434 l 87 434 l 87 521 l 87 608 l 87 694 l 174 694 l 260 694 l 260 608 l 347 608 l 347 521 l 260 521 l 260 434 l 260 347 l 260 260 l 347 260 l 347 174 l 260 174 z "},"Ń":{"ha":608,"x_min":0,"x_max":521,"o":"m 434 174 l 347 174 l 347 260 l 347 347 l 260 347 l 260 434 l 174 434 l 174 347 l 174 260 l 174 174 l 87 174 l 0 174 l 0 260 l 0 347 l 0 434 l 0 521 l 0 608 l 0 694 l 87 694 l 174 694 l 174 608 l 260 608 l 260 521 l 347 521 l 347 608 l 347 694 l 434 694 l 521 694 l 521 608 l 521 521 l 521 434 l 521 347 l 521 260 l 521 174 l 434 174 m 347 694 l 260 694 l 174 694 l 174 781 l 260 781 l 260 868 l 347 868 l 434 868 l 434 781 l 347 781 l 347 694 z "},"ń":{"ha":608,"x_min":0,"x_max":521,"o":"m 434 174 l 347 174 l 347 260 l 347 347 l 347 434 l 347 521 l 260 521 l 174 521 l 174 434 l 174 347 l 174 260 l 174 174 l 87 174 l 0 174 l 0 260 l 0 347 l 0 434 l 0 521 l 0 608 l 87 608 l 174 608 l 174 694 l 260 694 l 260 781 l 347 781 l 434 781 l 434 694 l 347 694 l 347 608 l 434 608 l 434 521 l 521 521 l 521 434 l 521 347 l 521 260 l 521 174 l 434 174 z "},"Ň":{"ha":608,"x_min":0,"x_max":521,"o":"m 434 174 l 347 174 l 347 260 l 347 347 l 260 347 l 260 434 l 174 434 l 174 347 l 174 260 l 174 174 l 87 174 l 0 174 l 0 260 l 0 347 l 0 434 l 0 521 l 0 608 l 0 694 l 87 694 l 87 781 l 0 781 l 0 868 l 87 868 l 174 868 l 174 781 l 260 781 l 347 781 l 347 868 l 434 868 l 521 868 l 521 781 l 434 781 l 434 694 l 521 694 l 521 608 l 521 521 l 521 434 l 521 347 l 521 260 l 521 174 l 434 174 m 347 521 l 347 608 l 347 694 l 260 694 l 174 694 l 174 608 l 260 608 l 260 521 l 347 521 z "},"ň":{"ha":608,"x_min":0,"x_max":521,"o":"m 434 174 l 347 174 l 347 260 l 347 347 l 347 434 l 347 521 l 260 521 l 174 521 l 174 434 l 174 347 l 174 260 l 174 174 l 87 174 l 0 174 l 0 260 l 0 347 l 0 434 l 0 521 l 0 608 l 87 608 l 87 694 l 0 694 l 0 781 l 87 781 l 174 781 l 174 694 l 260 694 l 347 694 l 347 781 l 434 781 l 521 781 l 521 694 l 434 694 l 434 608 l 434 521 l 521 521 l 521 434 l 521 347 l 521 260 l 521 174 l 434 174 z "},"Ř":{"ha":608,"x_min":0,"x_max":521,"o":"m 434 174 l 347 174 l 347 260 l 260 260 l 260 347 l 174 347 l 174 260 l 174 174 l 87 174 l 0 174 l 0 260 l 0 347 l 0 434 l 0 521 l 0 608 l 0 694 l 87 694 l 87 781 l 0 781 l 0 868 l 87 868 l 174 868 l 174 781 l 260 781 l 347 781 l 347 868 l 434 868 l 521 868 l 521 781 l 434 781 l 434 694 l 434 608 l 521 608 l 521 521 l 521 434 l 434 434 l 434 347 l 434 260 l 521 260 l 521 174 l 434 174 m 260 434 l 347 434 l 347 521 l 347 608 l 260 608 l 174 608 l 174 521 l 174 434 l 260 434 z "},"ř":{"ha":608,"x_min":0,"x_max":521,"o":"m 87 174 l 0 174 l 0 260 l 0 347 l 0 434 l 0 521 l 87 521 l 87 608 l 87 694 l 0 694 l 0 781 l 87 781 l 174 781 l 174 694 l 260 694 l 347 694 l 347 781 l 434 781 l 521 781 l 521 694 l 434 694 l 434 608 l 434 521 l 347 521 l 260 521 l 174 521 l 174 434 l 174 347 l 174 260 l 174 174 l 87 174 z "},"Ś":{"ha":608,"x_min":0,"x_max":521,"o":"m 347 174 l 260 174 l 174 174 l 87 174 l 87 260 l 0 260 l 0 347 l 87 347 l 174 347 l 174 260 l 260 260 l 347 260 l 347 347 l 347 434 l 260 434 l 174 434 l 87 434 l 87 521 l 0 521 l 0 608 l 87 608 l 87 694 l 174 694 l 174 781 l 260 781 l 260 868 l 347 868 l 434 868 l 434 781 l 347 781 l 347 694 l 434 694 l 434 608 l 347 608 l 260 608 l 174 608 l 174 521 l 260 521 l 347 521 l 434 521 l 434 434 l 521 434 l 521 347 l 521 260 l 434 260 l 434 174 l 347 174 z "},"ś":{"ha":608,"x_min":0,"x_max":521,"o":"m 347 174 l 260 174 l 174 174 l 87 174 l 0 174 l 0 260 l 87 260 l 174 260 l 260 260 l 347 260 l 347 347 l 260 347 l 174 347 l 87 347 l 87 434 l 0 434 l 0 521 l 87 521 l 87 608 l 174 608 l 174 694 l 260 694 l 260 781 l 347 781 l 434 781 l 434 694 l 347 694 l 347 608 l 434 608 l 434 521 l 347 521 l 260 521 l 174 521 l 174 434 l 260 434 l 347 434 l 434 434 l 434 347 l 521 347 l 521 260 l 434 260 l 434 174 l 347 174 z "},"Š":{"ha":608,"x_min":0,"x_max":521,"o":"m 347 174 l 260 174 l 174 174 l 87 174 l 87 260 l 0 260 l 0 347 l 87 347 l 174 347 l 174 260 l 260 260 l 347 260 l 347 347 l 347 434 l 260 434 l 174 434 l 87 434 l 87 521 l 0 521 l 0 608 l 87 608 l 87 694 l 87 781 l 0 781 l 0 868 l 87 868 l 174 868 l 174 781 l 260 781 l 347 781 l 347 868 l 434 868 l 521 868 l 521 781 l 434 781 l 434 694 l 434 608 l 347 608 l 260 608 l 174 608 l 174 521 l 260 521 l 347 521 l 434 521 l 434 434 l 521 434 l 521 347 l 521 260 l 434 260 l 434 174 l 347 174 z "},"š":{"ha":608,"x_min":0,"x_max":521,"o":"m 347 174 l 260 174 l 174 174 l 87 174 l 0 174 l 0 260 l 87 260 l 174 260 l 260 260 l 347 260 l 347 347 l 260 347 l 174 347 l 87 347 l 87 434 l 0 434 l 0 521 l 87 521 l 87 608 l 87 694 l 0 694 l 0 781 l 87 781 l 174 781 l 174 694 l 260 694 l 347 694 l 347 781 l 434 781 l 521 781 l 521 694 l 434 694 l 434 608 l 434 521 l 347 521 l 260 521 l 174 521 l 174 434 l 260 434 l 347 434 l 434 434 l 434 347 l 521 347 l 521 260 l 434 260 l 434 174 l 347 174 z "},"Ť":{"ha":608,"x_min":0,"x_max":521,"o":"m 260 174 l 174 174 l 174 260 l 174 347 l 174 434 l 174 521 l 174 608 l 87 608 l 0 608 l 0 694 l 87 694 l 87 781 l 0 781 l 0 868 l 87 868 l 174 868 l 174 781 l 260 781 l 347 781 l 347 868 l 434 868 l 521 868 l 521 781 l 434 781 l 434 694 l 521 694 l 521 608 l 434 608 l 347 608 l 347 521 l 347 434 l 347 347 l 347 260 l 347 174 l 260 174 z "},"ť":{"ha":694,"x_min":0,"x_max":608,"o":"m 521 434 l 521 521 l 434 521 l 434 608 l 434 694 l 521 694 l 608 694 l 608 608 l 608 521 l 608 434 l 521 434 m 260 174 l 174 174 l 174 260 l 87 260 l 87 347 l 87 434 l 87 521 l 0 521 l 0 608 l 87 608 l 87 694 l 174 694 l 260 694 l 260 608 l 347 608 l 347 521 l 260 521 l 260 434 l 260 347 l 260 260 l 347 260 l 347 174 l 260 174 z "},"Ů":{"ha":608,"x_min":0,"x_max":521,"o":"m 347 174 l 260 174 l 174 174 l 87 174 l 87 260 l 0 260 l 0 347 l 0 434 l 0 521 l 0 608 l 0 694 l 87 694 l 87 781 l 0 781 l 0 868 l 87 868 l 87 955 l 174 955 l 260 955 l 347 955 l 434 955 l 434 868 l 521 868 l 521 781 l 434 781 l 434 694 l 521 694 l 521 608 l 521 521 l 521 434 l 521 347 l 521 260 l 434 260 l 434 174 l 347 174 m 260 260 l 347 260 l 347 347 l 347 434 l 347 521 l 347 608 l 347 694 l 260 694 l 174 694 l 174 608 l 174 521 l 174 434 l 174 347 l 174 260 l 260 260 m 260 781 l 347 781 l 347 868 l 260 868 l 174 868 l 174 781 l 260 781 z "},"ů":{"ha":608,"x_min":0,"x_max":521,"o":"m 347 174 l 260 174 l 174 174 l 87 174 l 87 260 l 0 260 l 0 347 l 0 434 l 0 521 l 0 608 l 87 608 l 87 694 l 0 694 l 0 781 l 87 781 l 87 868 l 174 868 l 260 868 l 347 868 l 434 868 l 434 781 l 521 781 l 521 694 l 434 694 l 434 608 l 521 608 l 521 521 l 521 434 l 521 347 l 521 260 l 434 260 l 434 174 l 347 174 m 260 260 l 347 260 l 347 347 l 347 434 l 347 521 l 347 608 l 260 608 l 174 608 l 174 521 l 174 434 l 174 347 l 174 260 l 260 260 m 260 694 l 347 694 l 347 781 l 260 781 l 174 781 l 174 694 l 260 694 z "},"ų":{"ha":694,"x_min":0,"x_max":608,"o":"m 521 87 l 434 87 l 347 87 l 347 174 l 347 260 l 260 260 l 174 260 l 87 260 l 87 347 l 0 347 l 0 434 l 0 521 l 0 608 l 87 608 l 174 608 l 174 521 l 174 434 l 174 347 l 260 347 l 347 347 l 347 434 l 347 521 l 347 608 l 434 608 l 521 608 l 521 521 l 521 434 l 521 347 l 521 260 l 521 174 l 608 174 l 608 87 l 521 87 z "},"Ź":{"ha":608,"x_min":0,"x_max":521,"o":"m 434 260 l 521 260 l 521 174 l 434 174 l 347 174 l 260 174 l 174 174 l 87 174 l 0 174 l 0 260 l 0 347 l 87 347 l 87 434 l 174 434 l 174 521 l 260 521 l 260 608 l 174 608 l 87 608 l 0 608 l 0 694 l 87 694 l 174 694 l 174 781 l 260 781 l 260 868 l 347 868 l 434 868 l 434 781 l 347 781 l 347 694 l 434 694 l 521 694 l 521 608 l 521 521 l 434 521 l 434 434 l 347 434 l 347 347 l 260 347 l 260 260 l 347 260 l 434 260 z "},"ź":{"ha":608,"x_min":0,"x_max":521,"o":"m 434 260 l 521 260 l 521 174 l 434 174 l 347 174 l 260 174 l 174 174 l 87 174 l 0 174 l 0 260 l 87 260 l 87 347 l 174 347 l 174 434 l 260 434 l 260 521 l 174 521 l 87 521 l 0 521 l 0 608 l 87 608 l 174 608 l 174 694 l 260 694 l 260 781 l 347 781 l 434 781 l 434 694 l 347 694 l 347 608 l 434 608 l 521 608 l 521 521 l 434 521 l 434 434 l 347 434 l 347 347 l 260 347 l 260 260 l 347 260 l 434 260 z "},"Ż":{"ha":608,"x_min":0,"x_max":521,"o":"m 434 260 l 521 260 l 521 174 l 434 174 l 347 174 l 260 174 l 174 174 l 87 174 l 0 174 l 0 260 l 0 347 l 87 347 l 87 434 l 174 434 l 174 521 l 260 521 l 260 608 l 174 608 l 87 608 l 0 608 l 0 694 l 87 694 l 174 694 l 174 781 l 260 781 l 347 781 l 347 694 l 434 694 l 521 694 l 521 608 l 521 521 l 434 521 l 434 434 l 347 434 l 347 347 l 260 347 l 260 260 l 347 260 l 434 260 z "},"ż":{"ha":608,"x_min":0,"x_max":521,"o":"m 434 260 l 521 260 l 521 174 l 434 174 l 347 174 l 260 174 l 174 174 l 87 174 l 0 174 l 0 260 l 87 260 l 87 347 l 174 347 l 174 434 l 260 434 l 260 521 l 174 521 l 87 521 l 0 521 l 0 608 l 87 608 l 174 608 l 174 694 l 260 694 l 347 694 l 347 608 l 434 608 l 521 608 l 521 521 l 434 521 l 434 434 l 347 434 l 347 347 l 260 347 l 260 260 l 347 260 l 434 260 z "},"Ž":{"ha":608,"x_min":0,"x_max":521,"o":"m 434 260 l 521 260 l 521 174 l 434 174 l 347 174 l 260 174 l 174 174 l 87 174 l 0 174 l 0 260 l 0 347 l 87 347 l 87 434 l 174 434 l 174 521 l 260 521 l 260 608 l 174 608 l 87 608 l 0 608 l 0 694 l 87 694 l 87 781 l 0 781 l 0 868 l 87 868 l 174 868 l 174 781 l 260 781 l 347 781 l 347 868 l 434 868 l 521 868 l 521 781 l 434 781 l 434 694 l 521 694 l 521 608 l 521 521 l 434 521 l 434 434 l 347 434 l 347 347 l 260 347 l 260 260 l 347 260 l 434 260 z "},"ž":{"ha":608,"x_min":0,"x_max":521,"o":"m 434 260 l 521 260 l 521 174 l 434 174 l 347 174 l 260 174 l 174 174 l 87 174 l 0 174 l 0 260 l 87 260 l 87 347 l 174 347 l 174 434 l 260 434 l 260 521 l 174 521 l 87 521 l 0 521 l 0 608 l 87 608 l 87 694 l 0 694 l 0 781 l 87 781 l 174 781 l 174 694 l 260 694 l 347 694 l 347 781 l 434 781 l 521 781 l 521 694 l 434 694 l 434 608 l 521 608 l 521 521 l 434 521 l 434 434 l 347 434 l 347 347 l 260 347 l 260 260 l 347 260 l 434 260 z "},"€":{"ha":781,"x_min":0,"x_max":694,"o":"m 260 174 l 174 174 l 174 260 l 87 260 l 87 347 l 87 434 l 0 434 l 0 521 l 87 521 l 174 521 l 174 434 l 174 347 l 260 347 l 260 434 l 347 434 l 347 521 l 347 608 l 434 608 l 434 694 l 434 781 l 521 781 l 608 781 l 694 781 l 694 694 l 608 694 l 521 694 l 521 608 l 521 521 l 434 521 l 434 434 l 434 347 l 347 347 l 347 260 l 347 174 l 260 174 z "},"　":{"ha":1389,"x_min":0,"x_max":0,"o":""}}}
